<?xml version="1.0" encoding="utf-8" standalone="no"?>
<!DOCTYPE svg PUBLIC "-//W3C//DTD SVG 1.1//EN"
  "http://www.w3.org/Graphics/SVG/1.1/DTD/svg11.dtd">
<svg xmlns:xlink="http://www.w3.org/1999/xlink" width="720pt" height="432pt" viewBox="0 0 720 432" xmlns="http://www.w3.org/2000/svg" version="1.1">
 <metadata>
  <rdf:RDF xmlns:dc="http://purl.org/dc/elements/1.1/" xmlns:cc="http://creativecommons.org/ns#" xmlns:rdf="http://www.w3.org/1999/02/22-rdf-syntax-ns#">
   <cc:Work>
    <dc:type rdf:resource="http://purl.org/dc/dcmitype/StillImage"/>
    <dc:date>2026-01-04T18:45:21.978498</dc:date>
    <dc:format>image/svg+xml</dc:format>
    <dc:creator>
     <cc:Agent>
      <dc:title>Matplotlib v3.10.8, https://matplotlib.org/</dc:title>
     </cc:Agent>
    </dc:creator>
   </cc:Work>
  </rdf:RDF>
 </metadata>
 <defs>
  <style type="text/css">*{stroke-linejoin: round; stroke-linecap: butt}</style>
 </defs>
 <g id="figure_1">
  <g id="patch_1">
   <path d="M 0 432 
L 720 432 
L 720 0 
L 0 0 
z
"/>
  </g>
  <g id="axes_1">
   <g id="patch_2">
    <path d="M 90 384.48 
L 648 384.48 
L 648 51.84 
L 90 51.84 
z
"/>
   </g>
   <g id="matplotlib.axis_1">
    <g id="xtick_1">
     <g id="line2d_1">
      <path d="M 118.401198 384.48 
L 118.401198 51.84 
" clip-path="url(#p1f885e89ee)" style="fill: none; stroke: #ffffff; stroke-width: 0.8; stroke-linecap: round"/>
     </g>
     <g id="text_1">
      <!-- 1 -->
      <g style="fill: #ffffff" transform="translate(115.219948 399.078438) scale(0.1 -0.1)">
       <defs>
        <path id="DejaVuSans-31" d="M 794 531 
L 1825 531 
L 1825 4091 
L 703 3866 
L 703 4441 
L 1819 4666 
L 2450 4666 
L 2450 531 
L 3481 531 
L 3481 0 
L 794 0 
L 794 531 
z
" transform="scale(0.015625)"/>
       </defs>
       <use xlink:href="#DejaVuSans-31"/>
      </g>
     </g>
    </g>
    <g id="xtick_2">
     <g id="line2d_2">
      <path d="M 125.995101 384.48 
L 125.995101 51.84 
" clip-path="url(#p1f885e89ee)" style="fill: none; stroke: #ffffff; stroke-width: 0.8; stroke-linecap: round"/>
     </g>
     <g id="text_2">
      <!-- 2 -->
      <g style="fill: #ffffff" transform="translate(122.813851 399.078438) scale(0.1 -0.1)">
       <defs>
        <path id="DejaVuSans-32" d="M 1228 531 
L 3431 531 
L 3431 0 
L 469 0 
L 469 531 
Q 828 903 1448 1529 
Q 2069 2156 2228 2338 
Q 2531 2678 2651 2914 
Q 2772 3150 2772 3378 
Q 2772 3750 2511 3984 
Q 2250 4219 1831 4219 
Q 1534 4219 1204 4116 
Q 875 4013 500 3803 
L 500 4441 
Q 881 4594 1212 4672 
Q 1544 4750 1819 4750 
Q 2544 4750 2975 4387 
Q 3406 4025 3406 3419 
Q 3406 3131 3298 2873 
Q 3191 2616 2906 2266 
Q 2828 2175 2409 1742 
Q 1991 1309 1228 531 
z
" transform="scale(0.015625)"/>
       </defs>
       <use xlink:href="#DejaVuSans-32"/>
      </g>
     </g>
    </g>
    <g id="xtick_3">
     <g id="line2d_3">
      <path d="M 133.589004 384.48 
L 133.589004 51.84 
" clip-path="url(#p1f885e89ee)" style="fill: none; stroke: #ffffff; stroke-width: 0.8; stroke-linecap: round"/>
     </g>
     <g id="text_3">
      <!-- 3 -->
      <g style="fill: #ffffff" transform="translate(130.407754 399.078438) scale(0.1 -0.1)">
       <defs>
        <path id="DejaVuSans-33" d="M 2597 2516 
Q 3050 2419 3304 2112 
Q 3559 1806 3559 1356 
Q 3559 666 3084 287 
Q 2609 -91 1734 -91 
Q 1441 -91 1130 -33 
Q 819 25 488 141 
L 488 750 
Q 750 597 1062 519 
Q 1375 441 1716 441 
Q 2309 441 2620 675 
Q 2931 909 2931 1356 
Q 2931 1769 2642 2001 
Q 2353 2234 1838 2234 
L 1294 2234 
L 1294 2753 
L 1863 2753 
Q 2328 2753 2575 2939 
Q 2822 3125 2822 3475 
Q 2822 3834 2567 4026 
Q 2313 4219 1838 4219 
Q 1578 4219 1281 4162 
Q 984 4106 628 3988 
L 628 4550 
Q 988 4650 1302 4700 
Q 1616 4750 1894 4750 
Q 2613 4750 3031 4423 
Q 3450 4097 3450 3541 
Q 3450 3153 3228 2886 
Q 3006 2619 2597 2516 
z
" transform="scale(0.015625)"/>
       </defs>
       <use xlink:href="#DejaVuSans-33"/>
      </g>
     </g>
    </g>
    <g id="xtick_4">
     <g id="line2d_4">
      <path d="M 141.182907 384.48 
L 141.182907 51.84 
" clip-path="url(#p1f885e89ee)" style="fill: none; stroke: #ffffff; stroke-width: 0.8; stroke-linecap: round"/>
     </g>
     <g id="text_4">
      <!-- 4 -->
      <g style="fill: #ffffff" transform="translate(138.001657 399.078438) scale(0.1 -0.1)">
       <defs>
        <path id="DejaVuSans-34" d="M 2419 4116 
L 825 1625 
L 2419 1625 
L 2419 4116 
z
M 2253 4666 
L 3047 4666 
L 3047 1625 
L 3713 1625 
L 3713 1100 
L 3047 1100 
L 3047 0 
L 2419 0 
L 2419 1100 
L 313 1100 
L 313 1709 
L 2253 4666 
z
" transform="scale(0.015625)"/>
       </defs>
       <use xlink:href="#DejaVuSans-34"/>
      </g>
     </g>
    </g>
    <g id="xtick_5">
     <g id="line2d_5">
      <path d="M 148.77681 384.48 
L 148.77681 51.84 
" clip-path="url(#p1f885e89ee)" style="fill: none; stroke: #ffffff; stroke-width: 0.8; stroke-linecap: round"/>
     </g>
     <g id="text_5">
      <!-- 5 -->
      <g style="fill: #ffffff" transform="translate(145.59556 399.078438) scale(0.1 -0.1)">
       <defs>
        <path id="DejaVuSans-35" d="M 691 4666 
L 3169 4666 
L 3169 4134 
L 1269 4134 
L 1269 2991 
Q 1406 3038 1543 3061 
Q 1681 3084 1819 3084 
Q 2600 3084 3056 2656 
Q 3513 2228 3513 1497 
Q 3513 744 3044 326 
Q 2575 -91 1722 -91 
Q 1428 -91 1123 -41 
Q 819 9 494 109 
L 494 744 
Q 775 591 1075 516 
Q 1375 441 1709 441 
Q 2250 441 2565 725 
Q 2881 1009 2881 1497 
Q 2881 1984 2565 2268 
Q 2250 2553 1709 2553 
Q 1456 2553 1204 2497 
Q 953 2441 691 2322 
L 691 4666 
z
" transform="scale(0.015625)"/>
       </defs>
       <use xlink:href="#DejaVuSans-35"/>
      </g>
     </g>
    </g>
    <g id="xtick_6">
     <g id="line2d_6">
      <path d="M 156.370713 384.48 
L 156.370713 51.84 
" clip-path="url(#p1f885e89ee)" style="fill: none; stroke: #ffffff; stroke-width: 0.8; stroke-linecap: round"/>
     </g>
     <g id="text_6">
      <!-- 6 -->
      <g style="fill: #ffffff" transform="translate(153.189463 399.078438) scale(0.1 -0.1)">
       <defs>
        <path id="DejaVuSans-36" d="M 2113 2584 
Q 1688 2584 1439 2293 
Q 1191 2003 1191 1497 
Q 1191 994 1439 701 
Q 1688 409 2113 409 
Q 2538 409 2786 701 
Q 3034 994 3034 1497 
Q 3034 2003 2786 2293 
Q 2538 2584 2113 2584 
z
M 3366 4563 
L 3366 3988 
Q 3128 4100 2886 4159 
Q 2644 4219 2406 4219 
Q 1781 4219 1451 3797 
Q 1122 3375 1075 2522 
Q 1259 2794 1537 2939 
Q 1816 3084 2150 3084 
Q 2853 3084 3261 2657 
Q 3669 2231 3669 1497 
Q 3669 778 3244 343 
Q 2819 -91 2113 -91 
Q 1303 -91 875 529 
Q 447 1150 447 2328 
Q 447 3434 972 4092 
Q 1497 4750 2381 4750 
Q 2619 4750 2861 4703 
Q 3103 4656 3366 4563 
z
" transform="scale(0.015625)"/>
       </defs>
       <use xlink:href="#DejaVuSans-36"/>
      </g>
     </g>
    </g>
    <g id="xtick_7">
     <g id="line2d_7">
      <path d="M 163.964616 384.48 
L 163.964616 51.84 
" clip-path="url(#p1f885e89ee)" style="fill: none; stroke: #ffffff; stroke-width: 0.8; stroke-linecap: round"/>
     </g>
     <g id="text_7">
      <!-- 7 -->
      <g style="fill: #ffffff" transform="translate(160.783366 399.078438) scale(0.1 -0.1)">
       <defs>
        <path id="DejaVuSans-37" d="M 525 4666 
L 3525 4666 
L 3525 4397 
L 1831 0 
L 1172 0 
L 2766 4134 
L 525 4134 
L 525 4666 
z
" transform="scale(0.015625)"/>
       </defs>
       <use xlink:href="#DejaVuSans-37"/>
      </g>
     </g>
    </g>
    <g id="xtick_8">
     <g id="line2d_8">
      <path d="M 171.558519 384.48 
L 171.558519 51.84 
" clip-path="url(#p1f885e89ee)" style="fill: none; stroke: #ffffff; stroke-width: 0.8; stroke-linecap: round"/>
     </g>
     <g id="text_8">
      <!-- 8 -->
      <g style="fill: #ffffff" transform="translate(168.377269 399.078438) scale(0.1 -0.1)">
       <defs>
        <path id="DejaVuSans-38" d="M 2034 2216 
Q 1584 2216 1326 1975 
Q 1069 1734 1069 1313 
Q 1069 891 1326 650 
Q 1584 409 2034 409 
Q 2484 409 2743 651 
Q 3003 894 3003 1313 
Q 3003 1734 2745 1975 
Q 2488 2216 2034 2216 
z
M 1403 2484 
Q 997 2584 770 2862 
Q 544 3141 544 3541 
Q 544 4100 942 4425 
Q 1341 4750 2034 4750 
Q 2731 4750 3128 4425 
Q 3525 4100 3525 3541 
Q 3525 3141 3298 2862 
Q 3072 2584 2669 2484 
Q 3125 2378 3379 2068 
Q 3634 1759 3634 1313 
Q 3634 634 3220 271 
Q 2806 -91 2034 -91 
Q 1263 -91 848 271 
Q 434 634 434 1313 
Q 434 1759 690 2068 
Q 947 2378 1403 2484 
z
M 1172 3481 
Q 1172 3119 1398 2916 
Q 1625 2713 2034 2713 
Q 2441 2713 2670 2916 
Q 2900 3119 2900 3481 
Q 2900 3844 2670 4047 
Q 2441 4250 2034 4250 
Q 1625 4250 1398 4047 
Q 1172 3844 1172 3481 
z
" transform="scale(0.015625)"/>
       </defs>
       <use xlink:href="#DejaVuSans-38"/>
      </g>
     </g>
    </g>
    <g id="xtick_9">
     <g id="line2d_9">
      <path d="M 179.152422 384.48 
L 179.152422 51.84 
" clip-path="url(#p1f885e89ee)" style="fill: none; stroke: #ffffff; stroke-width: 0.8; stroke-linecap: round"/>
     </g>
     <g id="text_9">
      <!-- 9 -->
      <g style="fill: #ffffff" transform="translate(175.971172 399.078438) scale(0.1 -0.1)">
       <defs>
        <path id="DejaVuSans-39" d="M 703 97 
L 703 672 
Q 941 559 1184 500 
Q 1428 441 1663 441 
Q 2288 441 2617 861 
Q 2947 1281 2994 2138 
Q 2813 1869 2534 1725 
Q 2256 1581 1919 1581 
Q 1219 1581 811 2004 
Q 403 2428 403 3163 
Q 403 3881 828 4315 
Q 1253 4750 1959 4750 
Q 2769 4750 3195 4129 
Q 3622 3509 3622 2328 
Q 3622 1225 3098 567 
Q 2575 -91 1691 -91 
Q 1453 -91 1209 -44 
Q 966 3 703 97 
z
M 1959 2075 
Q 2384 2075 2632 2365 
Q 2881 2656 2881 3163 
Q 2881 3666 2632 3958 
Q 2384 4250 1959 4250 
Q 1534 4250 1286 3958 
Q 1038 3666 1038 3163 
Q 1038 2656 1286 2365 
Q 1534 2075 1959 2075 
z
" transform="scale(0.015625)"/>
       </defs>
       <use xlink:href="#DejaVuSans-39"/>
      </g>
     </g>
    </g>
    <g id="xtick_10">
     <g id="line2d_10">
      <path d="M 186.746326 384.48 
L 186.746326 51.84 
" clip-path="url(#p1f885e89ee)" style="fill: none; stroke: #ffffff; stroke-width: 0.8; stroke-linecap: round"/>
     </g>
     <g id="text_10">
      <!-- 10 -->
      <g style="fill: #ffffff" transform="translate(180.383826 399.078438) scale(0.1 -0.1)">
       <defs>
        <path id="DejaVuSans-30" d="M 2034 4250 
Q 1547 4250 1301 3770 
Q 1056 3291 1056 2328 
Q 1056 1369 1301 889 
Q 1547 409 2034 409 
Q 2525 409 2770 889 
Q 3016 1369 3016 2328 
Q 3016 3291 2770 3770 
Q 2525 4250 2034 4250 
z
M 2034 4750 
Q 2819 4750 3233 4129 
Q 3647 3509 3647 2328 
Q 3647 1150 3233 529 
Q 2819 -91 2034 -91 
Q 1250 -91 836 529 
Q 422 1150 422 2328 
Q 422 3509 836 4129 
Q 1250 4750 2034 4750 
z
" transform="scale(0.015625)"/>
       </defs>
       <use xlink:href="#DejaVuSans-31"/>
       <use xlink:href="#DejaVuSans-30" transform="translate(63.623047 0)"/>
      </g>
     </g>
    </g>
    <g id="xtick_11">
     <g id="line2d_11">
      <path d="M 194.340229 384.48 
L 194.340229 51.84 
" clip-path="url(#p1f885e89ee)" style="fill: none; stroke: #ffffff; stroke-width: 0.8; stroke-linecap: round"/>
     </g>
     <g id="text_11">
      <!-- 11 -->
      <g style="fill: #ffffff" transform="translate(187.977729 399.078438) scale(0.1 -0.1)">
       <use xlink:href="#DejaVuSans-31"/>
       <use xlink:href="#DejaVuSans-31" transform="translate(63.623047 0)"/>
      </g>
     </g>
    </g>
    <g id="xtick_12">
     <g id="line2d_12">
      <path d="M 201.934132 384.48 
L 201.934132 51.84 
" clip-path="url(#p1f885e89ee)" style="fill: none; stroke: #ffffff; stroke-width: 0.8; stroke-linecap: round"/>
     </g>
     <g id="text_12">
      <!-- 12 -->
      <g style="fill: #ffffff" transform="translate(195.571632 399.078438) scale(0.1 -0.1)">
       <use xlink:href="#DejaVuSans-31"/>
       <use xlink:href="#DejaVuSans-32" transform="translate(63.623047 0)"/>
      </g>
     </g>
    </g>
    <g id="xtick_13">
     <g id="line2d_13">
      <path d="M 209.528035 384.48 
L 209.528035 51.84 
" clip-path="url(#p1f885e89ee)" style="fill: none; stroke: #ffffff; stroke-width: 0.8; stroke-linecap: round"/>
     </g>
     <g id="text_13">
      <!-- 13 -->
      <g style="fill: #ffffff" transform="translate(203.165535 399.078438) scale(0.1 -0.1)">
       <use xlink:href="#DejaVuSans-31"/>
       <use xlink:href="#DejaVuSans-33" transform="translate(63.623047 0)"/>
      </g>
     </g>
    </g>
    <g id="xtick_14">
     <g id="line2d_14">
      <path d="M 217.121938 384.48 
L 217.121938 51.84 
" clip-path="url(#p1f885e89ee)" style="fill: none; stroke: #ffffff; stroke-width: 0.8; stroke-linecap: round"/>
     </g>
     <g id="text_14">
      <!-- 14 -->
      <g style="fill: #ffffff" transform="translate(210.759438 399.078438) scale(0.1 -0.1)">
       <use xlink:href="#DejaVuSans-31"/>
       <use xlink:href="#DejaVuSans-34" transform="translate(63.623047 0)"/>
      </g>
     </g>
    </g>
    <g id="xtick_15">
     <g id="line2d_15">
      <path d="M 224.715841 384.48 
L 224.715841 51.84 
" clip-path="url(#p1f885e89ee)" style="fill: none; stroke: #ffffff; stroke-width: 0.8; stroke-linecap: round"/>
     </g>
     <g id="text_15">
      <!-- 15 -->
      <g style="fill: #ffffff" transform="translate(218.353341 399.078438) scale(0.1 -0.1)">
       <use xlink:href="#DejaVuSans-31"/>
       <use xlink:href="#DejaVuSans-35" transform="translate(63.623047 0)"/>
      </g>
     </g>
    </g>
    <g id="xtick_16">
     <g id="line2d_16">
      <path d="M 232.309744 384.48 
L 232.309744 51.84 
" clip-path="url(#p1f885e89ee)" style="fill: none; stroke: #ffffff; stroke-width: 0.8; stroke-linecap: round"/>
     </g>
     <g id="text_16">
      <!-- 16 -->
      <g style="fill: #ffffff" transform="translate(225.947244 399.078438) scale(0.1 -0.1)">
       <use xlink:href="#DejaVuSans-31"/>
       <use xlink:href="#DejaVuSans-36" transform="translate(63.623047 0)"/>
      </g>
     </g>
    </g>
    <g id="xtick_17">
     <g id="line2d_17">
      <path d="M 239.903647 384.48 
L 239.903647 51.84 
" clip-path="url(#p1f885e89ee)" style="fill: none; stroke: #ffffff; stroke-width: 0.8; stroke-linecap: round"/>
     </g>
     <g id="text_17">
      <!-- 17 -->
      <g style="fill: #ffffff" transform="translate(233.541147 399.078438) scale(0.1 -0.1)">
       <use xlink:href="#DejaVuSans-31"/>
       <use xlink:href="#DejaVuSans-37" transform="translate(63.623047 0)"/>
      </g>
     </g>
    </g>
    <g id="xtick_18">
     <g id="line2d_18">
      <path d="M 247.49755 384.48 
L 247.49755 51.84 
" clip-path="url(#p1f885e89ee)" style="fill: none; stroke: #ffffff; stroke-width: 0.8; stroke-linecap: round"/>
     </g>
     <g id="text_18">
      <!-- 18 -->
      <g style="fill: #ffffff" transform="translate(241.13505 399.078438) scale(0.1 -0.1)">
       <use xlink:href="#DejaVuSans-31"/>
       <use xlink:href="#DejaVuSans-38" transform="translate(63.623047 0)"/>
      </g>
     </g>
    </g>
    <g id="xtick_19">
     <g id="line2d_19">
      <path d="M 255.091453 384.48 
L 255.091453 51.84 
" clip-path="url(#p1f885e89ee)" style="fill: none; stroke: #ffffff; stroke-width: 0.8; stroke-linecap: round"/>
     </g>
     <g id="text_19">
      <!-- 19 -->
      <g style="fill: #ffffff" transform="translate(248.728953 399.078438) scale(0.1 -0.1)">
       <use xlink:href="#DejaVuSans-31"/>
       <use xlink:href="#DejaVuSans-39" transform="translate(63.623047 0)"/>
      </g>
     </g>
    </g>
    <g id="xtick_20">
     <g id="line2d_20">
      <path d="M 262.685357 384.48 
L 262.685357 51.84 
" clip-path="url(#p1f885e89ee)" style="fill: none; stroke: #ffffff; stroke-width: 0.8; stroke-linecap: round"/>
     </g>
     <g id="text_20">
      <!-- 20 -->
      <g style="fill: #ffffff" transform="translate(256.322857 399.078438) scale(0.1 -0.1)">
       <use xlink:href="#DejaVuSans-32"/>
       <use xlink:href="#DejaVuSans-30" transform="translate(63.623047 0)"/>
      </g>
     </g>
    </g>
    <g id="xtick_21">
     <g id="line2d_21">
      <path d="M 270.27926 384.48 
L 270.27926 51.84 
" clip-path="url(#p1f885e89ee)" style="fill: none; stroke: #ffffff; stroke-width: 0.8; stroke-linecap: round"/>
     </g>
     <g id="text_21">
      <!-- 21 -->
      <g style="fill: #ffffff" transform="translate(263.91676 399.078438) scale(0.1 -0.1)">
       <use xlink:href="#DejaVuSans-32"/>
       <use xlink:href="#DejaVuSans-31" transform="translate(63.623047 0)"/>
      </g>
     </g>
    </g>
    <g id="xtick_22">
     <g id="line2d_22">
      <path d="M 277.873163 384.48 
L 277.873163 51.84 
" clip-path="url(#p1f885e89ee)" style="fill: none; stroke: #ffffff; stroke-width: 0.8; stroke-linecap: round"/>
     </g>
     <g id="text_22">
      <!-- 22 -->
      <g style="fill: #ffffff" transform="translate(271.510663 399.078438) scale(0.1 -0.1)">
       <use xlink:href="#DejaVuSans-32"/>
       <use xlink:href="#DejaVuSans-32" transform="translate(63.623047 0)"/>
      </g>
     </g>
    </g>
    <g id="xtick_23">
     <g id="line2d_23">
      <path d="M 285.467066 384.48 
L 285.467066 51.84 
" clip-path="url(#p1f885e89ee)" style="fill: none; stroke: #ffffff; stroke-width: 0.8; stroke-linecap: round"/>
     </g>
     <g id="text_23">
      <!-- 23 -->
      <g style="fill: #ffffff" transform="translate(279.104566 399.078438) scale(0.1 -0.1)">
       <use xlink:href="#DejaVuSans-32"/>
       <use xlink:href="#DejaVuSans-33" transform="translate(63.623047 0)"/>
      </g>
     </g>
    </g>
    <g id="xtick_24">
     <g id="line2d_24">
      <path d="M 293.060969 384.48 
L 293.060969 51.84 
" clip-path="url(#p1f885e89ee)" style="fill: none; stroke: #ffffff; stroke-width: 0.8; stroke-linecap: round"/>
     </g>
     <g id="text_24">
      <!-- 24 -->
      <g style="fill: #ffffff" transform="translate(286.698469 399.078438) scale(0.1 -0.1)">
       <use xlink:href="#DejaVuSans-32"/>
       <use xlink:href="#DejaVuSans-34" transform="translate(63.623047 0)"/>
      </g>
     </g>
    </g>
    <g id="xtick_25">
     <g id="line2d_25">
      <path d="M 300.654872 384.48 
L 300.654872 51.84 
" clip-path="url(#p1f885e89ee)" style="fill: none; stroke: #ffffff; stroke-width: 0.8; stroke-linecap: round"/>
     </g>
     <g id="text_25">
      <!-- 25 -->
      <g style="fill: #ffffff" transform="translate(294.292372 399.078438) scale(0.1 -0.1)">
       <use xlink:href="#DejaVuSans-32"/>
       <use xlink:href="#DejaVuSans-35" transform="translate(63.623047 0)"/>
      </g>
     </g>
    </g>
    <g id="xtick_26">
     <g id="line2d_26">
      <path d="M 308.248775 384.48 
L 308.248775 51.84 
" clip-path="url(#p1f885e89ee)" style="fill: none; stroke: #ffffff; stroke-width: 0.8; stroke-linecap: round"/>
     </g>
     <g id="text_26">
      <!-- 26 -->
      <g style="fill: #ffffff" transform="translate(301.886275 399.078438) scale(0.1 -0.1)">
       <use xlink:href="#DejaVuSans-32"/>
       <use xlink:href="#DejaVuSans-36" transform="translate(63.623047 0)"/>
      </g>
     </g>
    </g>
    <g id="xtick_27">
     <g id="line2d_27">
      <path d="M 315.842678 384.48 
L 315.842678 51.84 
" clip-path="url(#p1f885e89ee)" style="fill: none; stroke: #ffffff; stroke-width: 0.8; stroke-linecap: round"/>
     </g>
     <g id="text_27">
      <!-- 27 -->
      <g style="fill: #ffffff" transform="translate(309.480178 399.078438) scale(0.1 -0.1)">
       <use xlink:href="#DejaVuSans-32"/>
       <use xlink:href="#DejaVuSans-37" transform="translate(63.623047 0)"/>
      </g>
     </g>
    </g>
    <g id="xtick_28">
     <g id="line2d_28">
      <path d="M 323.436581 384.48 
L 323.436581 51.84 
" clip-path="url(#p1f885e89ee)" style="fill: none; stroke: #ffffff; stroke-width: 0.8; stroke-linecap: round"/>
     </g>
     <g id="text_28">
      <!-- 28 -->
      <g style="fill: #ffffff" transform="translate(317.074081 399.078438) scale(0.1 -0.1)">
       <use xlink:href="#DejaVuSans-32"/>
       <use xlink:href="#DejaVuSans-38" transform="translate(63.623047 0)"/>
      </g>
     </g>
    </g>
    <g id="xtick_29">
     <g id="line2d_29">
      <path d="M 331.030484 384.48 
L 331.030484 51.84 
" clip-path="url(#p1f885e89ee)" style="fill: none; stroke: #ffffff; stroke-width: 0.8; stroke-linecap: round"/>
     </g>
     <g id="text_29">
      <!-- 29 -->
      <g style="fill: #ffffff" transform="translate(324.667984 399.078438) scale(0.1 -0.1)">
       <use xlink:href="#DejaVuSans-32"/>
       <use xlink:href="#DejaVuSans-39" transform="translate(63.623047 0)"/>
      </g>
     </g>
    </g>
    <g id="xtick_30">
     <g id="line2d_30">
      <path d="M 338.624388 384.48 
L 338.624388 51.84 
" clip-path="url(#p1f885e89ee)" style="fill: none; stroke: #ffffff; stroke-width: 0.8; stroke-linecap: round"/>
     </g>
     <g id="text_30">
      <!-- 30 -->
      <g style="fill: #ffffff" transform="translate(332.261888 399.078438) scale(0.1 -0.1)">
       <use xlink:href="#DejaVuSans-33"/>
       <use xlink:href="#DejaVuSans-30" transform="translate(63.623047 0)"/>
      </g>
     </g>
    </g>
    <g id="xtick_31">
     <g id="line2d_31">
      <path d="M 346.218291 384.48 
L 346.218291 51.84 
" clip-path="url(#p1f885e89ee)" style="fill: none; stroke: #ffffff; stroke-width: 0.8; stroke-linecap: round"/>
     </g>
     <g id="text_31">
      <!-- 31 -->
      <g style="fill: #ffffff" transform="translate(339.855791 399.078438) scale(0.1 -0.1)">
       <use xlink:href="#DejaVuSans-33"/>
       <use xlink:href="#DejaVuSans-31" transform="translate(63.623047 0)"/>
      </g>
     </g>
    </g>
    <g id="xtick_32">
     <g id="line2d_32">
      <path d="M 353.812194 384.48 
L 353.812194 51.84 
" clip-path="url(#p1f885e89ee)" style="fill: none; stroke: #ffffff; stroke-width: 0.8; stroke-linecap: round"/>
     </g>
     <g id="text_32">
      <!-- 32 -->
      <g style="fill: #ffffff" transform="translate(347.449694 399.078438) scale(0.1 -0.1)">
       <use xlink:href="#DejaVuSans-33"/>
       <use xlink:href="#DejaVuSans-32" transform="translate(63.623047 0)"/>
      </g>
     </g>
    </g>
    <g id="xtick_33">
     <g id="line2d_33">
      <path d="M 361.406097 384.48 
L 361.406097 51.84 
" clip-path="url(#p1f885e89ee)" style="fill: none; stroke: #ffffff; stroke-width: 0.8; stroke-linecap: round"/>
     </g>
     <g id="text_33">
      <!-- 33 -->
      <g style="fill: #ffffff" transform="translate(355.043597 399.078438) scale(0.1 -0.1)">
       <use xlink:href="#DejaVuSans-33"/>
       <use xlink:href="#DejaVuSans-33" transform="translate(63.623047 0)"/>
      </g>
     </g>
    </g>
    <g id="xtick_34">
     <g id="line2d_34">
      <path d="M 369 384.48 
L 369 51.84 
" clip-path="url(#p1f885e89ee)" style="fill: none; stroke: #ffffff; stroke-width: 0.8; stroke-linecap: round"/>
     </g>
     <g id="text_34">
      <!-- 34 -->
      <g style="fill: #ffffff" transform="translate(362.6375 399.078438) scale(0.1 -0.1)">
       <use xlink:href="#DejaVuSans-33"/>
       <use xlink:href="#DejaVuSans-34" transform="translate(63.623047 0)"/>
      </g>
     </g>
    </g>
    <g id="xtick_35">
     <g id="line2d_35">
      <path d="M 376.593903 384.48 
L 376.593903 51.84 
" clip-path="url(#p1f885e89ee)" style="fill: none; stroke: #ffffff; stroke-width: 0.8; stroke-linecap: round"/>
     </g>
     <g id="text_35">
      <!-- 35 -->
      <g style="fill: #ffffff" transform="translate(370.231403 399.078438) scale(0.1 -0.1)">
       <use xlink:href="#DejaVuSans-33"/>
       <use xlink:href="#DejaVuSans-35" transform="translate(63.623047 0)"/>
      </g>
     </g>
    </g>
    <g id="xtick_36">
     <g id="line2d_36">
      <path d="M 384.187806 384.48 
L 384.187806 51.84 
" clip-path="url(#p1f885e89ee)" style="fill: none; stroke: #ffffff; stroke-width: 0.8; stroke-linecap: round"/>
     </g>
     <g id="text_36">
      <!-- 36 -->
      <g style="fill: #ffffff" transform="translate(377.825306 399.078438) scale(0.1 -0.1)">
       <use xlink:href="#DejaVuSans-33"/>
       <use xlink:href="#DejaVuSans-36" transform="translate(63.623047 0)"/>
      </g>
     </g>
    </g>
    <g id="xtick_37">
     <g id="line2d_37">
      <path d="M 391.781709 384.48 
L 391.781709 51.84 
" clip-path="url(#p1f885e89ee)" style="fill: none; stroke: #ffffff; stroke-width: 0.8; stroke-linecap: round"/>
     </g>
     <g id="text_37">
      <!-- 37 -->
      <g style="fill: #ffffff" transform="translate(385.419209 399.078438) scale(0.1 -0.1)">
       <use xlink:href="#DejaVuSans-33"/>
       <use xlink:href="#DejaVuSans-37" transform="translate(63.623047 0)"/>
      </g>
     </g>
    </g>
    <g id="xtick_38">
     <g id="line2d_38">
      <path d="M 399.375612 384.48 
L 399.375612 51.84 
" clip-path="url(#p1f885e89ee)" style="fill: none; stroke: #ffffff; stroke-width: 0.8; stroke-linecap: round"/>
     </g>
     <g id="text_38">
      <!-- 38 -->
      <g style="fill: #ffffff" transform="translate(393.013112 399.078438) scale(0.1 -0.1)">
       <use xlink:href="#DejaVuSans-33"/>
       <use xlink:href="#DejaVuSans-38" transform="translate(63.623047 0)"/>
      </g>
     </g>
    </g>
    <g id="xtick_39">
     <g id="line2d_39">
      <path d="M 406.969516 384.48 
L 406.969516 51.84 
" clip-path="url(#p1f885e89ee)" style="fill: none; stroke: #ffffff; stroke-width: 0.8; stroke-linecap: round"/>
     </g>
     <g id="text_39">
      <!-- 39 -->
      <g style="fill: #ffffff" transform="translate(400.607016 399.078438) scale(0.1 -0.1)">
       <use xlink:href="#DejaVuSans-33"/>
       <use xlink:href="#DejaVuSans-39" transform="translate(63.623047 0)"/>
      </g>
     </g>
    </g>
    <g id="xtick_40">
     <g id="line2d_40">
      <path d="M 414.563419 384.48 
L 414.563419 51.84 
" clip-path="url(#p1f885e89ee)" style="fill: none; stroke: #ffffff; stroke-width: 0.8; stroke-linecap: round"/>
     </g>
     <g id="text_40">
      <!-- 40 -->
      <g style="fill: #ffffff" transform="translate(408.200919 399.078438) scale(0.1 -0.1)">
       <use xlink:href="#DejaVuSans-34"/>
       <use xlink:href="#DejaVuSans-30" transform="translate(63.623047 0)"/>
      </g>
     </g>
    </g>
    <g id="xtick_41">
     <g id="line2d_41">
      <path d="M 422.157322 384.48 
L 422.157322 51.84 
" clip-path="url(#p1f885e89ee)" style="fill: none; stroke: #ffffff; stroke-width: 0.8; stroke-linecap: round"/>
     </g>
     <g id="text_41">
      <!-- 41 -->
      <g style="fill: #ffffff" transform="translate(415.794822 399.078438) scale(0.1 -0.1)">
       <use xlink:href="#DejaVuSans-34"/>
       <use xlink:href="#DejaVuSans-31" transform="translate(63.623047 0)"/>
      </g>
     </g>
    </g>
    <g id="xtick_42">
     <g id="line2d_42">
      <path d="M 429.751225 384.48 
L 429.751225 51.84 
" clip-path="url(#p1f885e89ee)" style="fill: none; stroke: #ffffff; stroke-width: 0.8; stroke-linecap: round"/>
     </g>
     <g id="text_42">
      <!-- 42 -->
      <g style="fill: #ffffff" transform="translate(423.388725 399.078438) scale(0.1 -0.1)">
       <use xlink:href="#DejaVuSans-34"/>
       <use xlink:href="#DejaVuSans-32" transform="translate(63.623047 0)"/>
      </g>
     </g>
    </g>
    <g id="xtick_43">
     <g id="line2d_43">
      <path d="M 437.345128 384.48 
L 437.345128 51.84 
" clip-path="url(#p1f885e89ee)" style="fill: none; stroke: #ffffff; stroke-width: 0.8; stroke-linecap: round"/>
     </g>
     <g id="text_43">
      <!-- 43 -->
      <g style="fill: #ffffff" transform="translate(430.982628 399.078438) scale(0.1 -0.1)">
       <use xlink:href="#DejaVuSans-34"/>
       <use xlink:href="#DejaVuSans-33" transform="translate(63.623047 0)"/>
      </g>
     </g>
    </g>
    <g id="xtick_44">
     <g id="line2d_44">
      <path d="M 444.939031 384.48 
L 444.939031 51.84 
" clip-path="url(#p1f885e89ee)" style="fill: none; stroke: #ffffff; stroke-width: 0.8; stroke-linecap: round"/>
     </g>
     <g id="text_44">
      <!-- 44 -->
      <g style="fill: #ffffff" transform="translate(438.576531 399.078438) scale(0.1 -0.1)">
       <use xlink:href="#DejaVuSans-34"/>
       <use xlink:href="#DejaVuSans-34" transform="translate(63.623047 0)"/>
      </g>
     </g>
    </g>
    <g id="xtick_45">
     <g id="line2d_45">
      <path d="M 452.532934 384.48 
L 452.532934 51.84 
" clip-path="url(#p1f885e89ee)" style="fill: none; stroke: #ffffff; stroke-width: 0.8; stroke-linecap: round"/>
     </g>
     <g id="text_45">
      <!-- 45 -->
      <g style="fill: #ffffff" transform="translate(446.170434 399.078438) scale(0.1 -0.1)">
       <use xlink:href="#DejaVuSans-34"/>
       <use xlink:href="#DejaVuSans-35" transform="translate(63.623047 0)"/>
      </g>
     </g>
    </g>
    <g id="xtick_46">
     <g id="line2d_46">
      <path d="M 460.126837 384.48 
L 460.126837 51.84 
" clip-path="url(#p1f885e89ee)" style="fill: none; stroke: #ffffff; stroke-width: 0.8; stroke-linecap: round"/>
     </g>
     <g id="text_46">
      <!-- 46 -->
      <g style="fill: #ffffff" transform="translate(453.764337 399.078438) scale(0.1 -0.1)">
       <use xlink:href="#DejaVuSans-34"/>
       <use xlink:href="#DejaVuSans-36" transform="translate(63.623047 0)"/>
      </g>
     </g>
    </g>
    <g id="xtick_47">
     <g id="line2d_47">
      <path d="M 467.72074 384.48 
L 467.72074 51.84 
" clip-path="url(#p1f885e89ee)" style="fill: none; stroke: #ffffff; stroke-width: 0.8; stroke-linecap: round"/>
     </g>
     <g id="text_47">
      <!-- 47 -->
      <g style="fill: #ffffff" transform="translate(461.35824 399.078438) scale(0.1 -0.1)">
       <use xlink:href="#DejaVuSans-34"/>
       <use xlink:href="#DejaVuSans-37" transform="translate(63.623047 0)"/>
      </g>
     </g>
    </g>
    <g id="xtick_48">
     <g id="line2d_48">
      <path d="M 475.314643 384.48 
L 475.314643 51.84 
" clip-path="url(#p1f885e89ee)" style="fill: none; stroke: #ffffff; stroke-width: 0.8; stroke-linecap: round"/>
     </g>
     <g id="text_48">
      <!-- 48 -->
      <g style="fill: #ffffff" transform="translate(468.952143 399.078438) scale(0.1 -0.1)">
       <use xlink:href="#DejaVuSans-34"/>
       <use xlink:href="#DejaVuSans-38" transform="translate(63.623047 0)"/>
      </g>
     </g>
    </g>
    <g id="xtick_49">
     <g id="line2d_49">
      <path d="M 482.908547 384.48 
L 482.908547 51.84 
" clip-path="url(#p1f885e89ee)" style="fill: none; stroke: #ffffff; stroke-width: 0.8; stroke-linecap: round"/>
     </g>
     <g id="text_49">
      <!-- 49 -->
      <g style="fill: #ffffff" transform="translate(476.546047 399.078438) scale(0.1 -0.1)">
       <use xlink:href="#DejaVuSans-34"/>
       <use xlink:href="#DejaVuSans-39" transform="translate(63.623047 0)"/>
      </g>
     </g>
    </g>
    <g id="xtick_50">
     <g id="line2d_50">
      <path d="M 490.50245 384.48 
L 490.50245 51.84 
" clip-path="url(#p1f885e89ee)" style="fill: none; stroke: #ffffff; stroke-width: 0.8; stroke-linecap: round"/>
     </g>
     <g id="text_50">
      <!-- 50 -->
      <g style="fill: #ffffff" transform="translate(484.13995 399.078438) scale(0.1 -0.1)">
       <use xlink:href="#DejaVuSans-35"/>
       <use xlink:href="#DejaVuSans-30" transform="translate(63.623047 0)"/>
      </g>
     </g>
    </g>
    <g id="xtick_51">
     <g id="line2d_51">
      <path d="M 498.096353 384.48 
L 498.096353 51.84 
" clip-path="url(#p1f885e89ee)" style="fill: none; stroke: #ffffff; stroke-width: 0.8; stroke-linecap: round"/>
     </g>
     <g id="text_51">
      <!-- 51 -->
      <g style="fill: #ffffff" transform="translate(491.733853 399.078438) scale(0.1 -0.1)">
       <use xlink:href="#DejaVuSans-35"/>
       <use xlink:href="#DejaVuSans-31" transform="translate(63.623047 0)"/>
      </g>
     </g>
    </g>
    <g id="xtick_52">
     <g id="line2d_52">
      <path d="M 505.690256 384.48 
L 505.690256 51.84 
" clip-path="url(#p1f885e89ee)" style="fill: none; stroke: #ffffff; stroke-width: 0.8; stroke-linecap: round"/>
     </g>
     <g id="text_52">
      <!-- 52 -->
      <g style="fill: #ffffff" transform="translate(499.327756 399.078438) scale(0.1 -0.1)">
       <use xlink:href="#DejaVuSans-35"/>
       <use xlink:href="#DejaVuSans-32" transform="translate(63.623047 0)"/>
      </g>
     </g>
    </g>
    <g id="xtick_53">
     <g id="line2d_53">
      <path d="M 513.284159 384.48 
L 513.284159 51.84 
" clip-path="url(#p1f885e89ee)" style="fill: none; stroke: #ffffff; stroke-width: 0.8; stroke-linecap: round"/>
     </g>
     <g id="text_53">
      <!-- 53 -->
      <g style="fill: #ffffff" transform="translate(506.921659 399.078438) scale(0.1 -0.1)">
       <use xlink:href="#DejaVuSans-35"/>
       <use xlink:href="#DejaVuSans-33" transform="translate(63.623047 0)"/>
      </g>
     </g>
    </g>
    <g id="xtick_54">
     <g id="line2d_54">
      <path d="M 520.878062 384.48 
L 520.878062 51.84 
" clip-path="url(#p1f885e89ee)" style="fill: none; stroke: #ffffff; stroke-width: 0.8; stroke-linecap: round"/>
     </g>
     <g id="text_54">
      <!-- 54 -->
      <g style="fill: #ffffff" transform="translate(514.515562 399.078438) scale(0.1 -0.1)">
       <use xlink:href="#DejaVuSans-35"/>
       <use xlink:href="#DejaVuSans-34" transform="translate(63.623047 0)"/>
      </g>
     </g>
    </g>
    <g id="xtick_55">
     <g id="line2d_55">
      <path d="M 528.471965 384.48 
L 528.471965 51.84 
" clip-path="url(#p1f885e89ee)" style="fill: none; stroke: #ffffff; stroke-width: 0.8; stroke-linecap: round"/>
     </g>
     <g id="text_55">
      <!-- 55 -->
      <g style="fill: #ffffff" transform="translate(522.109465 399.078438) scale(0.1 -0.1)">
       <use xlink:href="#DejaVuSans-35"/>
       <use xlink:href="#DejaVuSans-35" transform="translate(63.623047 0)"/>
      </g>
     </g>
    </g>
    <g id="xtick_56">
     <g id="line2d_56">
      <path d="M 536.065868 384.48 
L 536.065868 51.84 
" clip-path="url(#p1f885e89ee)" style="fill: none; stroke: #ffffff; stroke-width: 0.8; stroke-linecap: round"/>
     </g>
     <g id="text_56">
      <!-- 56 -->
      <g style="fill: #ffffff" transform="translate(529.703368 399.078438) scale(0.1 -0.1)">
       <use xlink:href="#DejaVuSans-35"/>
       <use xlink:href="#DejaVuSans-36" transform="translate(63.623047 0)"/>
      </g>
     </g>
    </g>
    <g id="xtick_57">
     <g id="line2d_57">
      <path d="M 543.659771 384.48 
L 543.659771 51.84 
" clip-path="url(#p1f885e89ee)" style="fill: none; stroke: #ffffff; stroke-width: 0.8; stroke-linecap: round"/>
     </g>
     <g id="text_57">
      <!-- 57 -->
      <g style="fill: #ffffff" transform="translate(537.297271 399.078438) scale(0.1 -0.1)">
       <use xlink:href="#DejaVuSans-35"/>
       <use xlink:href="#DejaVuSans-37" transform="translate(63.623047 0)"/>
      </g>
     </g>
    </g>
    <g id="xtick_58">
     <g id="line2d_58">
      <path d="M 551.253674 384.48 
L 551.253674 51.84 
" clip-path="url(#p1f885e89ee)" style="fill: none; stroke: #ffffff; stroke-width: 0.8; stroke-linecap: round"/>
     </g>
     <g id="text_58">
      <!-- 58 -->
      <g style="fill: #ffffff" transform="translate(544.891174 399.078438) scale(0.1 -0.1)">
       <use xlink:href="#DejaVuSans-35"/>
       <use xlink:href="#DejaVuSans-38" transform="translate(63.623047 0)"/>
      </g>
     </g>
    </g>
    <g id="xtick_59">
     <g id="line2d_59">
      <path d="M 558.847578 384.48 
L 558.847578 51.84 
" clip-path="url(#p1f885e89ee)" style="fill: none; stroke: #ffffff; stroke-width: 0.8; stroke-linecap: round"/>
     </g>
     <g id="text_59">
      <!-- 59 -->
      <g style="fill: #ffffff" transform="translate(552.485078 399.078438) scale(0.1 -0.1)">
       <use xlink:href="#DejaVuSans-35"/>
       <use xlink:href="#DejaVuSans-39" transform="translate(63.623047 0)"/>
      </g>
     </g>
    </g>
    <g id="xtick_60">
     <g id="line2d_60">
      <path d="M 566.441481 384.48 
L 566.441481 51.84 
" clip-path="url(#p1f885e89ee)" style="fill: none; stroke: #ffffff; stroke-width: 0.8; stroke-linecap: round"/>
     </g>
     <g id="text_60">
      <!-- 60 -->
      <g style="fill: #ffffff" transform="translate(560.078981 399.078438) scale(0.1 -0.1)">
       <use xlink:href="#DejaVuSans-36"/>
       <use xlink:href="#DejaVuSans-30" transform="translate(63.623047 0)"/>
      </g>
     </g>
    </g>
    <g id="xtick_61">
     <g id="line2d_61">
      <path d="M 574.035384 384.48 
L 574.035384 51.84 
" clip-path="url(#p1f885e89ee)" style="fill: none; stroke: #ffffff; stroke-width: 0.8; stroke-linecap: round"/>
     </g>
     <g id="text_61">
      <!-- 61 -->
      <g style="fill: #ffffff" transform="translate(567.672884 399.078438) scale(0.1 -0.1)">
       <use xlink:href="#DejaVuSans-36"/>
       <use xlink:href="#DejaVuSans-31" transform="translate(63.623047 0)"/>
      </g>
     </g>
    </g>
    <g id="xtick_62">
     <g id="line2d_62">
      <path d="M 581.629287 384.48 
L 581.629287 51.84 
" clip-path="url(#p1f885e89ee)" style="fill: none; stroke: #ffffff; stroke-width: 0.8; stroke-linecap: round"/>
     </g>
     <g id="text_62">
      <!-- 62 -->
      <g style="fill: #ffffff" transform="translate(575.266787 399.078438) scale(0.1 -0.1)">
       <use xlink:href="#DejaVuSans-36"/>
       <use xlink:href="#DejaVuSans-32" transform="translate(63.623047 0)"/>
      </g>
     </g>
    </g>
    <g id="xtick_63">
     <g id="line2d_63">
      <path d="M 589.22319 384.48 
L 589.22319 51.84 
" clip-path="url(#p1f885e89ee)" style="fill: none; stroke: #ffffff; stroke-width: 0.8; stroke-linecap: round"/>
     </g>
     <g id="text_63">
      <!-- 63 -->
      <g style="fill: #ffffff" transform="translate(582.86069 399.078438) scale(0.1 -0.1)">
       <use xlink:href="#DejaVuSans-36"/>
       <use xlink:href="#DejaVuSans-33" transform="translate(63.623047 0)"/>
      </g>
     </g>
    </g>
    <g id="xtick_64">
     <g id="line2d_64">
      <path d="M 596.817093 384.48 
L 596.817093 51.84 
" clip-path="url(#p1f885e89ee)" style="fill: none; stroke: #ffffff; stroke-width: 0.8; stroke-linecap: round"/>
     </g>
     <g id="text_64">
      <!-- 64 -->
      <g style="fill: #ffffff" transform="translate(590.454593 399.078438) scale(0.1 -0.1)">
       <use xlink:href="#DejaVuSans-36"/>
       <use xlink:href="#DejaVuSans-34" transform="translate(63.623047 0)"/>
      </g>
     </g>
    </g>
    <g id="xtick_65">
     <g id="line2d_65">
      <path d="M 604.410996 384.48 
L 604.410996 51.84 
" clip-path="url(#p1f885e89ee)" style="fill: none; stroke: #ffffff; stroke-width: 0.8; stroke-linecap: round"/>
     </g>
     <g id="text_65">
      <!-- 65 -->
      <g style="fill: #ffffff" transform="translate(598.048496 399.078438) scale(0.1 -0.1)">
       <use xlink:href="#DejaVuSans-36"/>
       <use xlink:href="#DejaVuSans-35" transform="translate(63.623047 0)"/>
      </g>
     </g>
    </g>
    <g id="xtick_66">
     <g id="line2d_66">
      <path d="M 612.004899 384.48 
L 612.004899 51.84 
" clip-path="url(#p1f885e89ee)" style="fill: none; stroke: #ffffff; stroke-width: 0.8; stroke-linecap: round"/>
     </g>
     <g id="text_66">
      <!-- 66 -->
      <g style="fill: #ffffff" transform="translate(605.642399 399.078438) scale(0.1 -0.1)">
       <use xlink:href="#DejaVuSans-36"/>
       <use xlink:href="#DejaVuSans-36" transform="translate(63.623047 0)"/>
      </g>
     </g>
    </g>
    <g id="xtick_67">
     <g id="line2d_67">
      <path d="M 619.598802 384.48 
L 619.598802 51.84 
" clip-path="url(#p1f885e89ee)" style="fill: none; stroke: #ffffff; stroke-width: 0.8; stroke-linecap: round"/>
     </g>
     <g id="text_67">
      <!-- 67 -->
      <g style="fill: #ffffff" transform="translate(613.236302 399.078438) scale(0.1 -0.1)">
       <use xlink:href="#DejaVuSans-36"/>
       <use xlink:href="#DejaVuSans-37" transform="translate(63.623047 0)"/>
      </g>
     </g>
    </g>
    <g id="text_68">
     <!-- Principal component index -->
     <g style="fill: #ffffff" transform="translate(302.548437 412.756563) scale(0.1 -0.1)">
      <defs>
       <path id="DejaVuSans-50" d="M 1259 4147 
L 1259 2394 
L 2053 2394 
Q 2494 2394 2734 2622 
Q 2975 2850 2975 3272 
Q 2975 3691 2734 3919 
Q 2494 4147 2053 4147 
L 1259 4147 
z
M 628 4666 
L 2053 4666 
Q 2838 4666 3239 4311 
Q 3641 3956 3641 3272 
Q 3641 2581 3239 2228 
Q 2838 1875 2053 1875 
L 1259 1875 
L 1259 0 
L 628 0 
L 628 4666 
z
" transform="scale(0.015625)"/>
       <path id="DejaVuSans-72" d="M 2631 2963 
Q 2534 3019 2420 3045 
Q 2306 3072 2169 3072 
Q 1681 3072 1420 2755 
Q 1159 2438 1159 1844 
L 1159 0 
L 581 0 
L 581 3500 
L 1159 3500 
L 1159 2956 
Q 1341 3275 1631 3429 
Q 1922 3584 2338 3584 
Q 2397 3584 2469 3576 
Q 2541 3569 2628 3553 
L 2631 2963 
z
" transform="scale(0.015625)"/>
       <path id="DejaVuSans-69" d="M 603 3500 
L 1178 3500 
L 1178 0 
L 603 0 
L 603 3500 
z
M 603 4863 
L 1178 4863 
L 1178 4134 
L 603 4134 
L 603 4863 
z
" transform="scale(0.015625)"/>
       <path id="DejaVuSans-6e" d="M 3513 2113 
L 3513 0 
L 2938 0 
L 2938 2094 
Q 2938 2591 2744 2837 
Q 2550 3084 2163 3084 
Q 1697 3084 1428 2787 
Q 1159 2491 1159 1978 
L 1159 0 
L 581 0 
L 581 3500 
L 1159 3500 
L 1159 2956 
Q 1366 3272 1645 3428 
Q 1925 3584 2291 3584 
Q 2894 3584 3203 3211 
Q 3513 2838 3513 2113 
z
" transform="scale(0.015625)"/>
       <path id="DejaVuSans-63" d="M 3122 3366 
L 3122 2828 
Q 2878 2963 2633 3030 
Q 2388 3097 2138 3097 
Q 1578 3097 1268 2742 
Q 959 2388 959 1747 
Q 959 1106 1268 751 
Q 1578 397 2138 397 
Q 2388 397 2633 464 
Q 2878 531 3122 666 
L 3122 134 
Q 2881 22 2623 -34 
Q 2366 -91 2075 -91 
Q 1284 -91 818 406 
Q 353 903 353 1747 
Q 353 2603 823 3093 
Q 1294 3584 2113 3584 
Q 2378 3584 2631 3529 
Q 2884 3475 3122 3366 
z
" transform="scale(0.015625)"/>
       <path id="DejaVuSans-70" d="M 1159 525 
L 1159 -1331 
L 581 -1331 
L 581 3500 
L 1159 3500 
L 1159 2969 
Q 1341 3281 1617 3432 
Q 1894 3584 2278 3584 
Q 2916 3584 3314 3078 
Q 3713 2572 3713 1747 
Q 3713 922 3314 415 
Q 2916 -91 2278 -91 
Q 1894 -91 1617 61 
Q 1341 213 1159 525 
z
M 3116 1747 
Q 3116 2381 2855 2742 
Q 2594 3103 2138 3103 
Q 1681 3103 1420 2742 
Q 1159 2381 1159 1747 
Q 1159 1113 1420 752 
Q 1681 391 2138 391 
Q 2594 391 2855 752 
Q 3116 1113 3116 1747 
z
" transform="scale(0.015625)"/>
       <path id="DejaVuSans-61" d="M 2194 1759 
Q 1497 1759 1228 1600 
Q 959 1441 959 1056 
Q 959 750 1161 570 
Q 1363 391 1709 391 
Q 2188 391 2477 730 
Q 2766 1069 2766 1631 
L 2766 1759 
L 2194 1759 
z
M 3341 1997 
L 3341 0 
L 2766 0 
L 2766 531 
Q 2569 213 2275 61 
Q 1981 -91 1556 -91 
Q 1019 -91 701 211 
Q 384 513 384 1019 
Q 384 1609 779 1909 
Q 1175 2209 1959 2209 
L 2766 2209 
L 2766 2266 
Q 2766 2663 2505 2880 
Q 2244 3097 1772 3097 
Q 1472 3097 1187 3025 
Q 903 2953 641 2809 
L 641 3341 
Q 956 3463 1253 3523 
Q 1550 3584 1831 3584 
Q 2591 3584 2966 3190 
Q 3341 2797 3341 1997 
z
" transform="scale(0.015625)"/>
       <path id="DejaVuSans-6c" d="M 603 4863 
L 1178 4863 
L 1178 0 
L 603 0 
L 603 4863 
z
" transform="scale(0.015625)"/>
       <path id="DejaVuSans-20" transform="scale(0.015625)"/>
       <path id="DejaVuSans-6f" d="M 1959 3097 
Q 1497 3097 1228 2736 
Q 959 2375 959 1747 
Q 959 1119 1226 758 
Q 1494 397 1959 397 
Q 2419 397 2687 759 
Q 2956 1122 2956 1747 
Q 2956 2369 2687 2733 
Q 2419 3097 1959 3097 
z
M 1959 3584 
Q 2709 3584 3137 3096 
Q 3566 2609 3566 1747 
Q 3566 888 3137 398 
Q 2709 -91 1959 -91 
Q 1206 -91 779 398 
Q 353 888 353 1747 
Q 353 2609 779 3096 
Q 1206 3584 1959 3584 
z
" transform="scale(0.015625)"/>
       <path id="DejaVuSans-6d" d="M 3328 2828 
Q 3544 3216 3844 3400 
Q 4144 3584 4550 3584 
Q 5097 3584 5394 3201 
Q 5691 2819 5691 2113 
L 5691 0 
L 5113 0 
L 5113 2094 
Q 5113 2597 4934 2840 
Q 4756 3084 4391 3084 
Q 3944 3084 3684 2787 
Q 3425 2491 3425 1978 
L 3425 0 
L 2847 0 
L 2847 2094 
Q 2847 2600 2669 2842 
Q 2491 3084 2119 3084 
Q 1678 3084 1418 2786 
Q 1159 2488 1159 1978 
L 1159 0 
L 581 0 
L 581 3500 
L 1159 3500 
L 1159 2956 
Q 1356 3278 1631 3431 
Q 1906 3584 2284 3584 
Q 2666 3584 2933 3390 
Q 3200 3197 3328 2828 
z
" transform="scale(0.015625)"/>
       <path id="DejaVuSans-65" d="M 3597 1894 
L 3597 1613 
L 953 1613 
Q 991 1019 1311 708 
Q 1631 397 2203 397 
Q 2534 397 2845 478 
Q 3156 559 3463 722 
L 3463 178 
Q 3153 47 2828 -22 
Q 2503 -91 2169 -91 
Q 1331 -91 842 396 
Q 353 884 353 1716 
Q 353 2575 817 3079 
Q 1281 3584 2069 3584 
Q 2775 3584 3186 3129 
Q 3597 2675 3597 1894 
z
M 3022 2063 
Q 3016 2534 2758 2815 
Q 2500 3097 2075 3097 
Q 1594 3097 1305 2825 
Q 1016 2553 972 2059 
L 3022 2063 
z
" transform="scale(0.015625)"/>
       <path id="DejaVuSans-74" d="M 1172 4494 
L 1172 3500 
L 2356 3500 
L 2356 3053 
L 1172 3053 
L 1172 1153 
Q 1172 725 1289 603 
Q 1406 481 1766 481 
L 2356 481 
L 2356 0 
L 1766 0 
Q 1100 0 847 248 
Q 594 497 594 1153 
L 594 3053 
L 172 3053 
L 172 3500 
L 594 3500 
L 594 4494 
L 1172 4494 
z
" transform="scale(0.015625)"/>
       <path id="DejaVuSans-64" d="M 2906 2969 
L 2906 4863 
L 3481 4863 
L 3481 0 
L 2906 0 
L 2906 525 
Q 2725 213 2448 61 
Q 2172 -91 1784 -91 
Q 1150 -91 751 415 
Q 353 922 353 1747 
Q 353 2572 751 3078 
Q 1150 3584 1784 3584 
Q 2172 3584 2448 3432 
Q 2725 3281 2906 2969 
z
M 947 1747 
Q 947 1113 1208 752 
Q 1469 391 1925 391 
Q 2381 391 2643 752 
Q 2906 1113 2906 1747 
Q 2906 2381 2643 2742 
Q 2381 3103 1925 3103 
Q 1469 3103 1208 2742 
Q 947 2381 947 1747 
z
" transform="scale(0.015625)"/>
       <path id="DejaVuSans-78" d="M 3513 3500 
L 2247 1797 
L 3578 0 
L 2900 0 
L 1881 1375 
L 863 0 
L 184 0 
L 1544 1831 
L 300 3500 
L 978 3500 
L 1906 2253 
L 2834 3500 
L 3513 3500 
z
" transform="scale(0.015625)"/>
      </defs>
      <use xlink:href="#DejaVuSans-50"/>
      <use xlink:href="#DejaVuSans-72" transform="translate(58.552734 0)"/>
      <use xlink:href="#DejaVuSans-69" transform="translate(99.666016 0)"/>
      <use xlink:href="#DejaVuSans-6e" transform="translate(127.449219 0)"/>
      <use xlink:href="#DejaVuSans-63" transform="translate(190.828125 0)"/>
      <use xlink:href="#DejaVuSans-69" transform="translate(245.808594 0)"/>
      <use xlink:href="#DejaVuSans-70" transform="translate(273.591797 0)"/>
      <use xlink:href="#DejaVuSans-61" transform="translate(337.068359 0)"/>
      <use xlink:href="#DejaVuSans-6c" transform="translate(398.347656 0)"/>
      <use xlink:href="#DejaVuSans-20" transform="translate(426.130859 0)"/>
      <use xlink:href="#DejaVuSans-63" transform="translate(457.917969 0)"/>
      <use xlink:href="#DejaVuSans-6f" transform="translate(512.898438 0)"/>
      <use xlink:href="#DejaVuSans-6d" transform="translate(574.080078 0)"/>
      <use xlink:href="#DejaVuSans-70" transform="translate(671.492188 0)"/>
      <use xlink:href="#DejaVuSans-6f" transform="translate(734.96875 0)"/>
      <use xlink:href="#DejaVuSans-6e" transform="translate(796.150391 0)"/>
      <use xlink:href="#DejaVuSans-65" transform="translate(859.529297 0)"/>
      <use xlink:href="#DejaVuSans-6e" transform="translate(921.052734 0)"/>
      <use xlink:href="#DejaVuSans-74" transform="translate(984.431641 0)"/>
      <use xlink:href="#DejaVuSans-20" transform="translate(1023.640625 0)"/>
      <use xlink:href="#DejaVuSans-69" transform="translate(1055.427734 0)"/>
      <use xlink:href="#DejaVuSans-6e" transform="translate(1083.210938 0)"/>
      <use xlink:href="#DejaVuSans-64" transform="translate(1146.589844 0)"/>
      <use xlink:href="#DejaVuSans-65" transform="translate(1210.066406 0)"/>
      <use xlink:href="#DejaVuSans-78" transform="translate(1269.839844 0)"/>
     </g>
    </g>
   </g>
   <g id="matplotlib.axis_2">
    <g id="ytick_1">
     <g id="line2d_68">
      <path d="M 90 384.48 
L 648 384.48 
" clip-path="url(#p1f885e89ee)" style="fill: none; stroke-dasharray: 2.96,1.28; stroke-dashoffset: 0; stroke: #ffffff; stroke-width: 0.8"/>
     </g>
     <g id="text_69">
      <!-- 0.0 -->
      <g style="fill: #ffffff" transform="translate(67.096875 388.279219) scale(0.1 -0.1)">
       <defs>
        <path id="DejaVuSans-2e" d="M 684 794 
L 1344 794 
L 1344 0 
L 684 0 
L 684 794 
z
" transform="scale(0.015625)"/>
       </defs>
       <use xlink:href="#DejaVuSans-30"/>
       <use xlink:href="#DejaVuSans-2e" transform="translate(63.623047 0)"/>
       <use xlink:href="#DejaVuSans-30" transform="translate(95.410156 0)"/>
      </g>
     </g>
    </g>
    <g id="ytick_2">
     <g id="line2d_69">
      <path d="M 90 317.817487 
L 648 317.817487 
" clip-path="url(#p1f885e89ee)" style="fill: none; stroke-dasharray: 2.96,1.28; stroke-dashoffset: 0; stroke: #ffffff; stroke-width: 0.8"/>
     </g>
     <g id="text_70">
      <!-- 0.2 -->
      <g style="fill: #ffffff" transform="translate(67.096875 321.616706) scale(0.1 -0.1)">
       <use xlink:href="#DejaVuSans-30"/>
       <use xlink:href="#DejaVuSans-2e" transform="translate(63.623047 0)"/>
       <use xlink:href="#DejaVuSans-32" transform="translate(95.410156 0)"/>
      </g>
     </g>
    </g>
    <g id="ytick_3">
     <g id="line2d_70">
      <path d="M 90 251.154974 
L 648 251.154974 
" clip-path="url(#p1f885e89ee)" style="fill: none; stroke-dasharray: 2.96,1.28; stroke-dashoffset: 0; stroke: #ffffff; stroke-width: 0.8"/>
     </g>
     <g id="text_71">
      <!-- 0.4 -->
      <g style="fill: #ffffff" transform="translate(67.096875 254.954193) scale(0.1 -0.1)">
       <use xlink:href="#DejaVuSans-30"/>
       <use xlink:href="#DejaVuSans-2e" transform="translate(63.623047 0)"/>
       <use xlink:href="#DejaVuSans-34" transform="translate(95.410156 0)"/>
      </g>
     </g>
    </g>
    <g id="ytick_4">
     <g id="line2d_71">
      <path d="M 90 184.492461 
L 648 184.492461 
" clip-path="url(#p1f885e89ee)" style="fill: none; stroke-dasharray: 2.96,1.28; stroke-dashoffset: 0; stroke: #ffffff; stroke-width: 0.8"/>
     </g>
     <g id="text_72">
      <!-- 0.6 -->
      <g style="fill: #ffffff" transform="translate(67.096875 188.29168) scale(0.1 -0.1)">
       <use xlink:href="#DejaVuSans-30"/>
       <use xlink:href="#DejaVuSans-2e" transform="translate(63.623047 0)"/>
       <use xlink:href="#DejaVuSans-36" transform="translate(95.410156 0)"/>
      </g>
     </g>
    </g>
    <g id="ytick_5">
     <g id="line2d_72">
      <path d="M 90 117.829949 
L 648 117.829949 
" clip-path="url(#p1f885e89ee)" style="fill: none; stroke-dasharray: 2.96,1.28; stroke-dashoffset: 0; stroke: #ffffff; stroke-width: 0.8"/>
     </g>
     <g id="text_73">
      <!-- 0.8 -->
      <g style="fill: #ffffff" transform="translate(67.096875 121.629167) scale(0.1 -0.1)">
       <use xlink:href="#DejaVuSans-30"/>
       <use xlink:href="#DejaVuSans-2e" transform="translate(63.623047 0)"/>
       <use xlink:href="#DejaVuSans-38" transform="translate(95.410156 0)"/>
      </g>
     </g>
    </g>
    <g id="text_74">
     <!-- Explained variance ratio -->
     <g style="fill: #ffffff" transform="translate(61.017187 278.9475) rotate(-90) scale(0.1 -0.1)">
      <defs>
       <path id="DejaVuSans-45" d="M 628 4666 
L 3578 4666 
L 3578 4134 
L 1259 4134 
L 1259 2753 
L 3481 2753 
L 3481 2222 
L 1259 2222 
L 1259 531 
L 3634 531 
L 3634 0 
L 628 0 
L 628 4666 
z
" transform="scale(0.015625)"/>
       <path id="DejaVuSans-76" d="M 191 3500 
L 800 3500 
L 1894 563 
L 2988 3500 
L 3597 3500 
L 2284 0 
L 1503 0 
L 191 3500 
z
" transform="scale(0.015625)"/>
      </defs>
      <use xlink:href="#DejaVuSans-45"/>
      <use xlink:href="#DejaVuSans-78" transform="translate(63.183594 0)"/>
      <use xlink:href="#DejaVuSans-70" transform="translate(122.363281 0)"/>
      <use xlink:href="#DejaVuSans-6c" transform="translate(185.839844 0)"/>
      <use xlink:href="#DejaVuSans-61" transform="translate(213.623047 0)"/>
      <use xlink:href="#DejaVuSans-69" transform="translate(274.902344 0)"/>
      <use xlink:href="#DejaVuSans-6e" transform="translate(302.685547 0)"/>
      <use xlink:href="#DejaVuSans-65" transform="translate(366.064453 0)"/>
      <use xlink:href="#DejaVuSans-64" transform="translate(427.587891 0)"/>
      <use xlink:href="#DejaVuSans-20" transform="translate(491.064453 0)"/>
      <use xlink:href="#DejaVuSans-76" transform="translate(522.851562 0)"/>
      <use xlink:href="#DejaVuSans-61" transform="translate(582.03125 0)"/>
      <use xlink:href="#DejaVuSans-72" transform="translate(643.310547 0)"/>
      <use xlink:href="#DejaVuSans-69" transform="translate(684.423828 0)"/>
      <use xlink:href="#DejaVuSans-61" transform="translate(712.207031 0)"/>
      <use xlink:href="#DejaVuSans-6e" transform="translate(773.486328 0)"/>
      <use xlink:href="#DejaVuSans-63" transform="translate(836.865234 0)"/>
      <use xlink:href="#DejaVuSans-65" transform="translate(891.845703 0)"/>
      <use xlink:href="#DejaVuSans-20" transform="translate(953.369141 0)"/>
      <use xlink:href="#DejaVuSans-72" transform="translate(985.15625 0)"/>
      <use xlink:href="#DejaVuSans-61" transform="translate(1026.269531 0)"/>
      <use xlink:href="#DejaVuSans-74" transform="translate(1087.548828 0)"/>
      <use xlink:href="#DejaVuSans-69" transform="translate(1126.757812 0)"/>
      <use xlink:href="#DejaVuSans-6f" transform="translate(1154.541016 0)"/>
     </g>
    </g>
   </g>
   <g id="patch_3">
    <path d="M 115.363636 384.48 
L 121.438759 384.48 
L 121.438759 175.978192 
L 115.363636 175.978192 
z
" clip-path="url(#p1f885e89ee)" style="fill: #8dd3c7; opacity: 0.5; stroke: #ffffff; stroke-linejoin: miter"/>
   </g>
   <g id="patch_4">
    <path d="M 122.957539 384.48 
L 129.032662 384.48 
L 129.032662 368.104278 
L 122.957539 368.104278 
z
" clip-path="url(#p1f885e89ee)" style="fill: #8dd3c7; opacity: 0.5; stroke: #ffffff; stroke-linejoin: miter"/>
   </g>
   <g id="patch_5">
    <path d="M 130.551443 384.48 
L 136.626565 384.48 
L 136.626565 370.742631 
L 130.551443 370.742631 
z
" clip-path="url(#p1f885e89ee)" style="fill: #8dd3c7; opacity: 0.5; stroke: #ffffff; stroke-linejoin: miter"/>
   </g>
   <g id="patch_6">
    <path d="M 138.145346 384.48 
L 144.220468 384.48 
L 144.220468 378.230536 
L 138.145346 378.230536 
z
" clip-path="url(#p1f885e89ee)" style="fill: #8dd3c7; opacity: 0.5; stroke: #ffffff; stroke-linejoin: miter"/>
   </g>
   <g id="patch_7">
    <path d="M 145.739249 384.48 
L 151.814371 384.48 
L 151.814371 378.830819 
L 145.739249 378.830819 
z
" clip-path="url(#p1f885e89ee)" style="fill: #8dd3c7; opacity: 0.5; stroke: #ffffff; stroke-linejoin: miter"/>
   </g>
   <g id="patch_8">
    <path d="M 153.333152 384.48 
L 159.408274 384.48 
L 159.408274 380.240033 
L 153.333152 380.240033 
z
" clip-path="url(#p1f885e89ee)" style="fill: #8dd3c7; opacity: 0.5; stroke: #ffffff; stroke-linejoin: miter"/>
   </g>
   <g id="patch_9">
    <path d="M 160.927055 384.48 
L 167.002177 384.48 
L 167.002177 380.557961 
L 160.927055 380.557961 
z
" clip-path="url(#p1f885e89ee)" style="fill: #8dd3c7; opacity: 0.5; stroke: #ffffff; stroke-linejoin: miter"/>
   </g>
   <g id="patch_10">
    <path d="M 168.520958 384.48 
L 174.596081 384.48 
L 174.596081 380.916978 
L 168.520958 380.916978 
z
" clip-path="url(#p1f885e89ee)" style="fill: #8dd3c7; opacity: 0.5; stroke: #ffffff; stroke-linejoin: miter"/>
   </g>
   <g id="patch_11">
    <path d="M 176.114861 384.48 
L 182.189984 384.48 
L 182.189984 381.248935 
L 176.114861 381.248935 
z
" clip-path="url(#p1f885e89ee)" style="fill: #8dd3c7; opacity: 0.5; stroke: #ffffff; stroke-linejoin: miter"/>
   </g>
   <g id="patch_12">
    <path d="M 183.708764 384.48 
L 189.783887 384.48 
L 189.783887 381.620118 
L 183.708764 381.620118 
z
" clip-path="url(#p1f885e89ee)" style="fill: #8dd3c7; opacity: 0.5; stroke: #ffffff; stroke-linejoin: miter"/>
   </g>
   <g id="patch_13">
    <path d="M 191.302667 384.48 
L 197.37779 384.48 
L 197.37779 381.939152 
L 191.302667 381.939152 
z
" clip-path="url(#p1f885e89ee)" style="fill: #8dd3c7; opacity: 0.5; stroke: #ffffff; stroke-linejoin: miter"/>
   </g>
   <g id="patch_14">
    <path d="M 198.89657 384.48 
L 204.971693 384.48 
L 204.971693 382.238654 
L 198.89657 382.238654 
z
" clip-path="url(#p1f885e89ee)" style="fill: #8dd3c7; opacity: 0.5; stroke: #ffffff; stroke-linejoin: miter"/>
   </g>
   <g id="patch_15">
    <path d="M 206.490474 384.48 
L 212.565596 384.48 
L 212.565596 382.548722 
L 206.490474 382.548722 
z
" clip-path="url(#p1f885e89ee)" style="fill: #8dd3c7; opacity: 0.5; stroke: #ffffff; stroke-linejoin: miter"/>
   </g>
   <g id="patch_16">
    <path d="M 214.084377 384.48 
L 220.159499 384.48 
L 220.159499 382.620514 
L 214.084377 382.620514 
z
" clip-path="url(#p1f885e89ee)" style="fill: #8dd3c7; opacity: 0.5; stroke: #ffffff; stroke-linejoin: miter"/>
   </g>
   <g id="patch_17">
    <path d="M 221.67828 384.48 
L 227.753402 384.48 
L 227.753402 382.817018 
L 221.67828 382.817018 
z
" clip-path="url(#p1f885e89ee)" style="fill: #8dd3c7; opacity: 0.5; stroke: #ffffff; stroke-linejoin: miter"/>
   </g>
   <g id="patch_18">
    <path d="M 229.272183 384.48 
L 235.347305 384.48 
L 235.347305 382.896973 
L 229.272183 382.896973 
z
" clip-path="url(#p1f885e89ee)" style="fill: #8dd3c7; opacity: 0.5; stroke: #ffffff; stroke-linejoin: miter"/>
   </g>
   <g id="patch_19">
    <path d="M 236.866086 384.48 
L 242.941208 384.48 
L 242.941208 382.922763 
L 236.866086 382.922763 
z
" clip-path="url(#p1f885e89ee)" style="fill: #8dd3c7; opacity: 0.5; stroke: #ffffff; stroke-linejoin: miter"/>
   </g>
   <g id="patch_20">
    <path d="M 244.459989 384.48 
L 250.535112 384.48 
L 250.535112 383.041363 
L 244.459989 383.041363 
z
" clip-path="url(#p1f885e89ee)" style="fill: #8dd3c7; opacity: 0.5; stroke: #ffffff; stroke-linejoin: miter"/>
   </g>
   <g id="patch_21">
    <path d="M 252.053892 384.48 
L 258.129015 384.48 
L 258.129015 383.061038 
L 252.053892 383.061038 
z
" clip-path="url(#p1f885e89ee)" style="fill: #8dd3c7; opacity: 0.5; stroke: #ffffff; stroke-linejoin: miter"/>
   </g>
   <g id="patch_22">
    <path d="M 259.647795 384.48 
L 265.722918 384.48 
L 265.722918 383.112102 
L 259.647795 383.112102 
z
" clip-path="url(#p1f885e89ee)" style="fill: #8dd3c7; opacity: 0.5; stroke: #ffffff; stroke-linejoin: miter"/>
   </g>
   <g id="patch_23">
    <path d="M 267.241698 384.48 
L 273.316821 384.48 
L 273.316821 383.16674 
L 267.241698 383.16674 
z
" clip-path="url(#p1f885e89ee)" style="fill: #8dd3c7; opacity: 0.5; stroke: #ffffff; stroke-linejoin: miter"/>
   </g>
   <g id="patch_24">
    <path d="M 274.835602 384.48 
L 280.910724 384.48 
L 280.910724 383.229047 
L 274.835602 383.229047 
z
" clip-path="url(#p1f885e89ee)" style="fill: #8dd3c7; opacity: 0.5; stroke: #ffffff; stroke-linejoin: miter"/>
   </g>
   <g id="patch_25">
    <path d="M 282.429505 384.48 
L 288.504627 384.48 
L 288.504627 383.305315 
L 282.429505 383.305315 
z
" clip-path="url(#p1f885e89ee)" style="fill: #8dd3c7; opacity: 0.5; stroke: #ffffff; stroke-linejoin: miter"/>
   </g>
   <g id="patch_26">
    <path d="M 290.023408 384.48 
L 296.09853 384.48 
L 296.09853 383.348872 
L 290.023408 383.348872 
z
" clip-path="url(#p1f885e89ee)" style="fill: #8dd3c7; opacity: 0.5; stroke: #ffffff; stroke-linejoin: miter"/>
   </g>
   <g id="patch_27">
    <path d="M 297.617311 384.48 
L 303.692433 384.48 
L 303.692433 383.372939 
L 297.617311 383.372939 
z
" clip-path="url(#p1f885e89ee)" style="fill: #8dd3c7; opacity: 0.5; stroke: #ffffff; stroke-linejoin: miter"/>
   </g>
   <g id="patch_28">
    <path d="M 305.211214 384.48 
L 311.286336 384.48 
L 311.286336 383.415304 
L 305.211214 383.415304 
z
" clip-path="url(#p1f885e89ee)" style="fill: #8dd3c7; opacity: 0.5; stroke: #ffffff; stroke-linejoin: miter"/>
   </g>
   <g id="patch_29">
    <path d="M 312.805117 384.48 
L 318.88024 384.48 
L 318.88024 383.474132 
L 312.805117 383.474132 
z
" clip-path="url(#p1f885e89ee)" style="fill: #8dd3c7; opacity: 0.5; stroke: #ffffff; stroke-linejoin: miter"/>
   </g>
   <g id="patch_30">
    <path d="M 320.39902 384.48 
L 326.474143 384.48 
L 326.474143 383.507452 
L 320.39902 383.507452 
z
" clip-path="url(#p1f885e89ee)" style="fill: #8dd3c7; opacity: 0.5; stroke: #ffffff; stroke-linejoin: miter"/>
   </g>
   <g id="patch_31">
    <path d="M 327.992923 384.48 
L 334.068046 384.48 
L 334.068046 383.514827 
L 327.992923 383.514827 
z
" clip-path="url(#p1f885e89ee)" style="fill: #8dd3c7; opacity: 0.5; stroke: #ffffff; stroke-linejoin: miter"/>
   </g>
   <g id="patch_32">
    <path d="M 335.586826 384.48 
L 341.661949 384.48 
L 341.661949 383.540299 
L 335.586826 383.540299 
z
" clip-path="url(#p1f885e89ee)" style="fill: #8dd3c7; opacity: 0.5; stroke: #ffffff; stroke-linejoin: miter"/>
   </g>
   <g id="patch_33">
    <path d="M 343.180729 384.48 
L 349.255852 384.48 
L 349.255852 383.55771 
L 343.180729 383.55771 
z
" clip-path="url(#p1f885e89ee)" style="fill: #8dd3c7; opacity: 0.5; stroke: #ffffff; stroke-linejoin: miter"/>
   </g>
   <g id="patch_34">
    <path d="M 350.774633 384.48 
L 356.849755 384.48 
L 356.849755 383.602071 
L 350.774633 383.602071 
z
" clip-path="url(#p1f885e89ee)" style="fill: #8dd3c7; opacity: 0.5; stroke: #ffffff; stroke-linejoin: miter"/>
   </g>
   <g id="patch_35">
    <path d="M 358.368536 384.48 
L 364.443658 384.48 
L 364.443658 383.629031 
L 358.368536 383.629031 
z
" clip-path="url(#p1f885e89ee)" style="fill: #8dd3c7; opacity: 0.5; stroke: #ffffff; stroke-linejoin: miter"/>
   </g>
   <g id="patch_36">
    <path d="M 365.962439 384.48 
L 372.037561 384.48 
L 372.037561 383.693829 
L 365.962439 383.693829 
z
" clip-path="url(#p1f885e89ee)" style="fill: #8dd3c7; opacity: 0.5; stroke: #ffffff; stroke-linejoin: miter"/>
   </g>
   <g id="patch_37">
    <path d="M 373.556342 384.48 
L 379.631464 384.48 
L 379.631464 383.711207 
L 373.556342 383.711207 
z
" clip-path="url(#p1f885e89ee)" style="fill: #8dd3c7; opacity: 0.5; stroke: #ffffff; stroke-linejoin: miter"/>
   </g>
   <g id="patch_38">
    <path d="M 381.150245 384.48 
L 387.225367 384.48 
L 387.225367 383.734553 
L 381.150245 383.734553 
z
" clip-path="url(#p1f885e89ee)" style="fill: #8dd3c7; opacity: 0.5; stroke: #ffffff; stroke-linejoin: miter"/>
   </g>
   <g id="patch_39">
    <path d="M 388.744148 384.48 
L 394.819271 384.48 
L 394.819271 383.736886 
L 388.744148 383.736886 
z
" clip-path="url(#p1f885e89ee)" style="fill: #8dd3c7; opacity: 0.5; stroke: #ffffff; stroke-linejoin: miter"/>
   </g>
   <g id="patch_40">
    <path d="M 396.338051 384.48 
L 402.413174 384.48 
L 402.413174 383.779124 
L 396.338051 383.779124 
z
" clip-path="url(#p1f885e89ee)" style="fill: #8dd3c7; opacity: 0.5; stroke: #ffffff; stroke-linejoin: miter"/>
   </g>
   <g id="patch_41">
    <path d="M 403.931954 384.48 
L 410.007077 384.48 
L 410.007077 383.7854 
L 403.931954 383.7854 
z
" clip-path="url(#p1f885e89ee)" style="fill: #8dd3c7; opacity: 0.5; stroke: #ffffff; stroke-linejoin: miter"/>
   </g>
   <g id="patch_42">
    <path d="M 411.525857 384.48 
L 417.60098 384.48 
L 417.60098 383.797463 
L 411.525857 383.797463 
z
" clip-path="url(#p1f885e89ee)" style="fill: #8dd3c7; opacity: 0.5; stroke: #ffffff; stroke-linejoin: miter"/>
   </g>
   <g id="patch_43">
    <path d="M 419.11976 384.48 
L 425.194883 384.48 
L 425.194883 383.837185 
L 419.11976 383.837185 
z
" clip-path="url(#p1f885e89ee)" style="fill: #8dd3c7; opacity: 0.5; stroke: #ffffff; stroke-linejoin: miter"/>
   </g>
   <g id="patch_44">
    <path d="M 426.713664 384.48 
L 432.788786 384.48 
L 432.788786 383.85044 
L 426.713664 383.85044 
z
" clip-path="url(#p1f885e89ee)" style="fill: #8dd3c7; opacity: 0.5; stroke: #ffffff; stroke-linejoin: miter"/>
   </g>
   <g id="patch_45">
    <path d="M 434.307567 384.48 
L 440.382689 384.48 
L 440.382689 383.876103 
L 434.307567 383.876103 
z
" clip-path="url(#p1f885e89ee)" style="fill: #8dd3c7; opacity: 0.5; stroke: #ffffff; stroke-linejoin: miter"/>
   </g>
   <g id="patch_46">
    <path d="M 441.90147 384.48 
L 447.976592 384.48 
L 447.976592 383.881795 
L 441.90147 383.881795 
z
" clip-path="url(#p1f885e89ee)" style="fill: #8dd3c7; opacity: 0.5; stroke: #ffffff; stroke-linejoin: miter"/>
   </g>
   <g id="patch_47">
    <path d="M 449.495373 384.48 
L 455.570495 384.48 
L 455.570495 383.90561 
L 449.495373 383.90561 
z
" clip-path="url(#p1f885e89ee)" style="fill: #8dd3c7; opacity: 0.5; stroke: #ffffff; stroke-linejoin: miter"/>
   </g>
   <g id="patch_48">
    <path d="M 457.089276 384.48 
L 463.164398 384.48 
L 463.164398 383.946027 
L 457.089276 383.946027 
z
" clip-path="url(#p1f885e89ee)" style="fill: #8dd3c7; opacity: 0.5; stroke: #ffffff; stroke-linejoin: miter"/>
   </g>
   <g id="patch_49">
    <path d="M 464.683179 384.48 
L 470.758302 384.48 
L 470.758302 383.956568 
L 464.683179 383.956568 
z
" clip-path="url(#p1f885e89ee)" style="fill: #8dd3c7; opacity: 0.5; stroke: #ffffff; stroke-linejoin: miter"/>
   </g>
   <g id="patch_50">
    <path d="M 472.277082 384.48 
L 478.352205 384.48 
L 478.352205 383.957941 
L 472.277082 383.957941 
z
" clip-path="url(#p1f885e89ee)" style="fill: #8dd3c7; opacity: 0.5; stroke: #ffffff; stroke-linejoin: miter"/>
   </g>
   <g id="patch_51">
    <path d="M 479.870985 384.48 
L 485.946108 384.48 
L 485.946108 383.970132 
L 479.870985 383.970132 
z
" clip-path="url(#p1f885e89ee)" style="fill: #8dd3c7; opacity: 0.5; stroke: #ffffff; stroke-linejoin: miter"/>
   </g>
   <g id="patch_52">
    <path d="M 487.464888 384.48 
L 493.540011 384.48 
L 493.540011 383.97886 
L 487.464888 383.97886 
z
" clip-path="url(#p1f885e89ee)" style="fill: #8dd3c7; opacity: 0.5; stroke: #ffffff; stroke-linejoin: miter"/>
   </g>
   <g id="patch_53">
    <path d="M 495.058792 384.48 
L 501.133914 384.48 
L 501.133914 383.996304 
L 495.058792 383.996304 
z
" clip-path="url(#p1f885e89ee)" style="fill: #8dd3c7; opacity: 0.5; stroke: #ffffff; stroke-linejoin: miter"/>
   </g>
   <g id="patch_54">
    <path d="M 502.652695 384.48 
L 508.727817 384.48 
L 508.727817 384.011229 
L 502.652695 384.011229 
z
" clip-path="url(#p1f885e89ee)" style="fill: #8dd3c7; opacity: 0.5; stroke: #ffffff; stroke-linejoin: miter"/>
   </g>
   <g id="patch_55">
    <path d="M 510.246598 384.48 
L 516.32172 384.48 
L 516.32172 384.023945 
L 510.246598 384.023945 
z
" clip-path="url(#p1f885e89ee)" style="fill: #8dd3c7; opacity: 0.5; stroke: #ffffff; stroke-linejoin: miter"/>
   </g>
   <g id="patch_56">
    <path d="M 517.840501 384.48 
L 523.915623 384.48 
L 523.915623 384.057167 
L 517.840501 384.057167 
z
" clip-path="url(#p1f885e89ee)" style="fill: #8dd3c7; opacity: 0.5; stroke: #ffffff; stroke-linejoin: miter"/>
   </g>
   <g id="patch_57">
    <path d="M 525.434404 384.48 
L 531.509526 384.48 
L 531.509526 384.063339 
L 525.434404 384.063339 
z
" clip-path="url(#p1f885e89ee)" style="fill: #8dd3c7; opacity: 0.5; stroke: #ffffff; stroke-linejoin: miter"/>
   </g>
   <g id="patch_58">
    <path d="M 533.028307 384.48 
L 539.10343 384.48 
L 539.10343 384.080884 
L 533.028307 384.080884 
z
" clip-path="url(#p1f885e89ee)" style="fill: #8dd3c7; opacity: 0.5; stroke: #ffffff; stroke-linejoin: miter"/>
   </g>
   <g id="patch_59">
    <path d="M 540.62221 384.48 
L 546.697333 384.48 
L 546.697333 384.086292 
L 540.62221 384.086292 
z
" clip-path="url(#p1f885e89ee)" style="fill: #8dd3c7; opacity: 0.5; stroke: #ffffff; stroke-linejoin: miter"/>
   </g>
   <g id="patch_60">
    <path d="M 548.216113 384.48 
L 554.291236 384.48 
L 554.291236 384.096708 
L 548.216113 384.096708 
z
" clip-path="url(#p1f885e89ee)" style="fill: #8dd3c7; opacity: 0.5; stroke: #ffffff; stroke-linejoin: miter"/>
   </g>
   <g id="patch_61">
    <path d="M 555.810016 384.48 
L 561.885139 384.48 
L 561.885139 384.103082 
L 555.810016 384.103082 
z
" clip-path="url(#p1f885e89ee)" style="fill: #8dd3c7; opacity: 0.5; stroke: #ffffff; stroke-linejoin: miter"/>
   </g>
   <g id="patch_62">
    <path d="M 563.403919 384.48 
L 569.479042 384.48 
L 569.479042 384.114458 
L 563.403919 384.114458 
z
" clip-path="url(#p1f885e89ee)" style="fill: #8dd3c7; opacity: 0.5; stroke: #ffffff; stroke-linejoin: miter"/>
   </g>
   <g id="patch_63">
    <path d="M 570.997823 384.48 
L 577.072945 384.48 
L 577.072945 384.121009 
L 570.997823 384.121009 
z
" clip-path="url(#p1f885e89ee)" style="fill: #8dd3c7; opacity: 0.5; stroke: #ffffff; stroke-linejoin: miter"/>
   </g>
   <g id="patch_64">
    <path d="M 578.591726 384.48 
L 584.666848 384.48 
L 584.666848 384.130354 
L 578.591726 384.130354 
z
" clip-path="url(#p1f885e89ee)" style="fill: #8dd3c7; opacity: 0.5; stroke: #ffffff; stroke-linejoin: miter"/>
   </g>
   <g id="patch_65">
    <path d="M 586.185629 384.48 
L 592.260751 384.48 
L 592.260751 384.133708 
L 586.185629 384.133708 
z
" clip-path="url(#p1f885e89ee)" style="fill: #8dd3c7; opacity: 0.5; stroke: #ffffff; stroke-linejoin: miter"/>
   </g>
   <g id="patch_66">
    <path d="M 593.779532 384.48 
L 599.854654 384.48 
L 599.854654 384.141773 
L 593.779532 384.141773 
z
" clip-path="url(#p1f885e89ee)" style="fill: #8dd3c7; opacity: 0.5; stroke: #ffffff; stroke-linejoin: miter"/>
   </g>
   <g id="patch_67">
    <path d="M 601.373435 384.48 
L 607.448557 384.48 
L 607.448557 384.149515 
L 601.373435 384.149515 
z
" clip-path="url(#p1f885e89ee)" style="fill: #8dd3c7; opacity: 0.5; stroke: #ffffff; stroke-linejoin: miter"/>
   </g>
   <g id="patch_68">
    <path d="M 608.967338 384.48 
L 615.042461 384.48 
L 615.042461 384.156603 
L 608.967338 384.156603 
z
" clip-path="url(#p1f885e89ee)" style="fill: #8dd3c7; opacity: 0.5; stroke: #ffffff; stroke-linejoin: miter"/>
   </g>
   <g id="patch_69">
    <path d="M 616.561241 384.48 
L 622.636364 384.48 
L 622.636364 384.161987 
L 616.561241 384.161987 
z
" clip-path="url(#p1f885e89ee)" style="fill: #8dd3c7; opacity: 0.5; stroke: #ffffff; stroke-linejoin: miter"/>
   </g>
   <g id="line2d_73">
    <path d="M 118.401198 175.978192 
L 122.198149 175.978192 
L 122.198149 159.60247 
L 129.792052 159.60247 
L 129.792052 145.865101 
L 137.385955 145.865101 
L 137.385955 139.615637 
L 144.979858 139.615637 
L 144.979858 133.966456 
L 152.573762 133.966456 
L 152.573762 129.726489 
L 160.167665 129.726489 
L 160.167665 125.804449 
L 167.761568 125.804449 
L 167.761568 122.241428 
L 175.355471 122.241428 
L 175.355471 119.010363 
L 182.949374 119.010363 
L 182.949374 116.150481 
L 190.543277 116.150481 
L 190.543277 113.609633 
L 198.13718 113.609633 
L 198.13718 111.368287 
L 205.731083 111.368287 
L 205.731083 109.437008 
L 213.324986 109.437008 
L 213.324986 107.577522 
L 220.918889 107.577522 
L 220.918889 105.91454 
L 228.512793 105.91454 
L 228.512793 104.331513 
L 236.106696 104.331513 
L 236.106696 102.774277 
L 243.700599 102.774277 
L 243.700599 101.33564 
L 251.294502 101.33564 
L 251.294502 99.916678 
L 258.888405 99.916678 
L 258.888405 98.54878 
L 266.482308 98.54878 
L 266.482308 97.23552 
L 274.076211 97.23552 
L 274.076211 95.984567 
L 281.670114 95.984567 
L 281.670114 94.809882 
L 289.264017 94.809882 
L 289.264017 93.678754 
L 296.857921 93.678754 
L 296.857921 92.571693 
L 304.451824 92.571693 
L 304.451824 91.506997 
L 312.045727 91.506997 
L 312.045727 90.501129 
L 319.63963 90.501129 
L 319.63963 89.528581 
L 327.233533 89.528581 
L 327.233533 88.563408 
L 334.827436 88.563408 
L 334.827436 87.623707 
L 342.421339 87.623707 
L 342.421339 86.701418 
L 350.015242 86.701418 
L 350.015242 85.823489 
L 357.609145 85.823489 
L 357.609145 84.97252 
L 365.203048 84.97252 
L 365.203048 84.186349 
L 372.796952 84.186349 
L 372.796952 83.417556 
L 380.390855 83.417556 
L 380.390855 82.672108 
L 387.984758 82.672108 
L 387.984758 81.928994 
L 395.578661 81.928994 
L 395.578661 81.228118 
L 403.172564 81.228118 
L 403.172564 80.533518 
L 410.766467 80.533518 
L 410.766467 79.850982 
L 418.36037 79.850982 
L 418.36037 79.208167 
L 425.954273 79.208167 
L 425.954273 78.578607 
L 433.548176 78.578607 
L 433.548176 77.974711 
L 441.142079 77.974711 
L 441.142079 77.376506 
L 448.735983 77.376506 
L 448.735983 76.802116 
L 456.329886 76.802116 
L 456.329886 76.268143 
L 463.923789 76.268143 
L 463.923789 75.74471 
L 471.517692 75.74471 
L 471.517692 75.222652 
L 479.111595 75.222652 
L 479.111595 74.712784 
L 486.705498 74.712784 
L 486.705498 74.211644 
L 494.299401 74.211644 
L 494.299401 73.727949 
L 501.893304 73.727949 
L 501.893304 73.259177 
L 509.487207 73.259177 
L 509.487207 72.803122 
L 517.081111 72.803122 
L 517.081111 72.380289 
L 524.675014 72.380289 
L 524.675014 71.963628 
L 532.268917 71.963628 
L 532.268917 71.564512 
L 539.86282 71.564512 
L 539.86282 71.170804 
L 547.456723 71.170804 
L 547.456723 70.787511 
L 555.050626 70.787511 
L 555.050626 70.410593 
L 562.644529 70.410593 
L 562.644529 70.045051 
L 570.238432 70.045051 
L 570.238432 69.68606 
L 577.832335 69.68606 
L 577.832335 69.336414 
L 585.426238 69.336414 
L 585.426238 68.990122 
L 593.020142 68.990122 
L 593.020142 68.651895 
L 600.614045 68.651895 
L 600.614045 68.32141 
L 608.207948 68.32141 
L 608.207948 67.998013 
L 615.801851 67.998013 
L 615.801851 67.68 
L 619.598802 67.68 
L 619.598802 67.68 
" clip-path="url(#p1f885e89ee)" style="fill: none; stroke: #ff0000; stroke-width: 1.5; stroke-linecap: round"/>
   </g>
   <g id="patch_70">
    <path d="M 90 384.48 
L 90 51.84 
" style="fill: none; stroke: #ffffff; stroke-width: 0.8; stroke-linejoin: miter; stroke-linecap: square"/>
   </g>
   <g id="patch_71">
    <path d="M 648 384.48 
L 648 51.84 
" style="fill: none; stroke: #ffffff; stroke-width: 0.8; stroke-linejoin: miter; stroke-linecap: square"/>
   </g>
   <g id="patch_72">
    <path d="M 90 384.48 
L 648 384.48 
" style="fill: none; stroke: #ffffff; stroke-width: 0.8; stroke-linejoin: miter; stroke-linecap: square"/>
   </g>
   <g id="patch_73">
    <path d="M 90 51.84 
L 648 51.84 
" style="fill: none; stroke: #ffffff; stroke-width: 0.8; stroke-linejoin: miter; stroke-linecap: square"/>
   </g>
   <g id="text_75">
    <!-- PCA: Explained Variance (95.05%) -->
    <g style="fill: #ffffff" transform="translate(266.505938 45.84) scale(0.12 -0.12)">
     <defs>
      <path id="DejaVuSans-43" d="M 4122 4306 
L 4122 3641 
Q 3803 3938 3442 4084 
Q 3081 4231 2675 4231 
Q 1875 4231 1450 3742 
Q 1025 3253 1025 2328 
Q 1025 1406 1450 917 
Q 1875 428 2675 428 
Q 3081 428 3442 575 
Q 3803 722 4122 1019 
L 4122 359 
Q 3791 134 3420 21 
Q 3050 -91 2638 -91 
Q 1578 -91 968 557 
Q 359 1206 359 2328 
Q 359 3453 968 4101 
Q 1578 4750 2638 4750 
Q 3056 4750 3426 4639 
Q 3797 4528 4122 4306 
z
" transform="scale(0.015625)"/>
      <path id="DejaVuSans-41" d="M 2188 4044 
L 1331 1722 
L 3047 1722 
L 2188 4044 
z
M 1831 4666 
L 2547 4666 
L 4325 0 
L 3669 0 
L 3244 1197 
L 1141 1197 
L 716 0 
L 50 0 
L 1831 4666 
z
" transform="scale(0.015625)"/>
      <path id="DejaVuSans-3a" d="M 750 794 
L 1409 794 
L 1409 0 
L 750 0 
L 750 794 
z
M 750 3309 
L 1409 3309 
L 1409 2516 
L 750 2516 
L 750 3309 
z
" transform="scale(0.015625)"/>
      <path id="DejaVuSans-56" d="M 1831 0 
L 50 4666 
L 709 4666 
L 2188 738 
L 3669 4666 
L 4325 4666 
L 2547 0 
L 1831 0 
z
" transform="scale(0.015625)"/>
      <path id="DejaVuSans-28" d="M 1984 4856 
Q 1566 4138 1362 3434 
Q 1159 2731 1159 2009 
Q 1159 1288 1364 580 
Q 1569 -128 1984 -844 
L 1484 -844 
Q 1016 -109 783 600 
Q 550 1309 550 2009 
Q 550 2706 781 3412 
Q 1013 4119 1484 4856 
L 1984 4856 
z
" transform="scale(0.015625)"/>
      <path id="DejaVuSans-25" d="M 4653 2053 
Q 4381 2053 4226 1822 
Q 4072 1591 4072 1178 
Q 4072 772 4226 539 
Q 4381 306 4653 306 
Q 4919 306 5073 539 
Q 5228 772 5228 1178 
Q 5228 1588 5073 1820 
Q 4919 2053 4653 2053 
z
M 4653 2450 
Q 5147 2450 5437 2106 
Q 5728 1763 5728 1178 
Q 5728 594 5436 251 
Q 5144 -91 4653 -91 
Q 4153 -91 3862 251 
Q 3572 594 3572 1178 
Q 3572 1766 3864 2108 
Q 4156 2450 4653 2450 
z
M 1428 4353 
Q 1159 4353 1004 4120 
Q 850 3888 850 3481 
Q 850 3069 1003 2837 
Q 1156 2606 1428 2606 
Q 1700 2606 1854 2837 
Q 2009 3069 2009 3481 
Q 2009 3884 1853 4118 
Q 1697 4353 1428 4353 
z
M 4250 4750 
L 4750 4750 
L 1831 -91 
L 1331 -91 
L 4250 4750 
z
M 1428 4750 
Q 1922 4750 2215 4408 
Q 2509 4066 2509 3481 
Q 2509 2891 2217 2550 
Q 1925 2209 1428 2209 
Q 931 2209 642 2551 
Q 353 2894 353 3481 
Q 353 4063 643 4406 
Q 934 4750 1428 4750 
z
" transform="scale(0.015625)"/>
      <path id="DejaVuSans-29" d="M 513 4856 
L 1013 4856 
Q 1481 4119 1714 3412 
Q 1947 2706 1947 2009 
Q 1947 1309 1714 600 
Q 1481 -109 1013 -844 
L 513 -844 
Q 928 -128 1133 580 
Q 1338 1288 1338 2009 
Q 1338 2731 1133 3434 
Q 928 4138 513 4856 
z
" transform="scale(0.015625)"/>
     </defs>
     <use xlink:href="#DejaVuSans-50"/>
     <use xlink:href="#DejaVuSans-43" transform="translate(60.302734 0)"/>
     <use xlink:href="#DejaVuSans-41" transform="translate(130.126953 0)"/>
     <use xlink:href="#DejaVuSans-3a" transform="translate(196.785156 0)"/>
     <use xlink:href="#DejaVuSans-20" transform="translate(230.476562 0)"/>
     <use xlink:href="#DejaVuSans-45" transform="translate(262.263672 0)"/>
     <use xlink:href="#DejaVuSans-78" transform="translate(325.447266 0)"/>
     <use xlink:href="#DejaVuSans-70" transform="translate(384.626953 0)"/>
     <use xlink:href="#DejaVuSans-6c" transform="translate(448.103516 0)"/>
     <use xlink:href="#DejaVuSans-61" transform="translate(475.886719 0)"/>
     <use xlink:href="#DejaVuSans-69" transform="translate(537.166016 0)"/>
     <use xlink:href="#DejaVuSans-6e" transform="translate(564.949219 0)"/>
     <use xlink:href="#DejaVuSans-65" transform="translate(628.328125 0)"/>
     <use xlink:href="#DejaVuSans-64" transform="translate(689.851562 0)"/>
     <use xlink:href="#DejaVuSans-20" transform="translate(753.328125 0)"/>
     <use xlink:href="#DejaVuSans-56" transform="translate(785.115234 0)"/>
     <use xlink:href="#DejaVuSans-61" transform="translate(845.773438 0)"/>
     <use xlink:href="#DejaVuSans-72" transform="translate(907.052734 0)"/>
     <use xlink:href="#DejaVuSans-69" transform="translate(948.166016 0)"/>
     <use xlink:href="#DejaVuSans-61" transform="translate(975.949219 0)"/>
     <use xlink:href="#DejaVuSans-6e" transform="translate(1037.228516 0)"/>
     <use xlink:href="#DejaVuSans-63" transform="translate(1100.607422 0)"/>
     <use xlink:href="#DejaVuSans-65" transform="translate(1155.587891 0)"/>
     <use xlink:href="#DejaVuSans-20" transform="translate(1217.111328 0)"/>
     <use xlink:href="#DejaVuSans-28" transform="translate(1248.898438 0)"/>
     <use xlink:href="#DejaVuSans-39" transform="translate(1287.912109 0)"/>
     <use xlink:href="#DejaVuSans-35" transform="translate(1351.535156 0)"/>
     <use xlink:href="#DejaVuSans-2e" transform="translate(1415.158203 0)"/>
     <use xlink:href="#DejaVuSans-30" transform="translate(1446.945312 0)"/>
     <use xlink:href="#DejaVuSans-35" transform="translate(1510.568359 0)"/>
     <use xlink:href="#DejaVuSans-25" transform="translate(1574.191406 0)"/>
     <use xlink:href="#DejaVuSans-29" transform="translate(1669.210938 0)"/>
    </g>
   </g>
   <g id="legend_1">
    <g id="patch_74">
     <path d="M 97 89.19625 
L 186.075 89.19625 
Q 188.075 89.19625 188.075 87.19625 
L 188.075 58.84 
Q 188.075 56.84 186.075 56.84 
L 97 56.84 
Q 95 56.84 95 58.84 
L 95 87.19625 
Q 95 89.19625 97 89.19625 
z
" style="opacity: 0.8; stroke: #cccccc; stroke-linejoin: miter"/>
    </g>
    <g id="line2d_74">
     <path d="M 99 64.938437 
L 104 64.938437 
L 104 64.938437 
L 114 64.938437 
L 114 64.938437 
L 119 64.938437 
" style="fill: none; stroke: #ff0000; stroke-width: 1.5; stroke-linecap: round"/>
    </g>
    <g id="text_76">
     <!-- Cumulative -->
     <g style="fill: #ffffff" transform="translate(127 68.438437) scale(0.1 -0.1)">
      <defs>
       <path id="DejaVuSans-75" d="M 544 1381 
L 544 3500 
L 1119 3500 
L 1119 1403 
Q 1119 906 1312 657 
Q 1506 409 1894 409 
Q 2359 409 2629 706 
Q 2900 1003 2900 1516 
L 2900 3500 
L 3475 3500 
L 3475 0 
L 2900 0 
L 2900 538 
Q 2691 219 2414 64 
Q 2138 -91 1772 -91 
Q 1169 -91 856 284 
Q 544 659 544 1381 
z
M 1991 3584 
L 1991 3584 
z
" transform="scale(0.015625)"/>
      </defs>
      <use xlink:href="#DejaVuSans-43"/>
      <use xlink:href="#DejaVuSans-75" transform="translate(69.824219 0)"/>
      <use xlink:href="#DejaVuSans-6d" transform="translate(133.203125 0)"/>
      <use xlink:href="#DejaVuSans-75" transform="translate(230.615234 0)"/>
      <use xlink:href="#DejaVuSans-6c" transform="translate(293.994141 0)"/>
      <use xlink:href="#DejaVuSans-61" transform="translate(321.777344 0)"/>
      <use xlink:href="#DejaVuSans-74" transform="translate(383.056641 0)"/>
      <use xlink:href="#DejaVuSans-69" transform="translate(422.265625 0)"/>
      <use xlink:href="#DejaVuSans-76" transform="translate(450.048828 0)"/>
      <use xlink:href="#DejaVuSans-65" transform="translate(509.228516 0)"/>
     </g>
    </g>
    <g id="patch_75">
     <path d="M 99 83.116562 
L 119 83.116562 
L 119 76.116562 
L 99 76.116562 
z
" style="fill: #8dd3c7; opacity: 0.5; stroke: #ffffff; stroke-linejoin: miter"/>
    </g>
    <g id="text_77">
     <!-- Individual -->
     <g style="fill: #ffffff" transform="translate(127 83.116562) scale(0.1 -0.1)">
      <defs>
       <path id="DejaVuSans-49" d="M 628 4666 
L 1259 4666 
L 1259 0 
L 628 0 
L 628 4666 
z
" transform="scale(0.015625)"/>
      </defs>
      <use xlink:href="#DejaVuSans-49"/>
      <use xlink:href="#DejaVuSans-6e" transform="translate(29.492188 0)"/>
      <use xlink:href="#DejaVuSans-64" transform="translate(92.871094 0)"/>
      <use xlink:href="#DejaVuSans-69" transform="translate(156.347656 0)"/>
      <use xlink:href="#DejaVuSans-76" transform="translate(184.130859 0)"/>
      <use xlink:href="#DejaVuSans-69" transform="translate(243.310547 0)"/>
      <use xlink:href="#DejaVuSans-64" transform="translate(271.09375 0)"/>
      <use xlink:href="#DejaVuSans-75" transform="translate(334.570312 0)"/>
      <use xlink:href="#DejaVuSans-61" transform="translate(397.949219 0)"/>
      <use xlink:href="#DejaVuSans-6c" transform="translate(459.228516 0)"/>
     </g>
    </g>
   </g>
  </g>
 </g>
 <defs>
  <clipPath id="p1f885e89ee">
   <rect x="90" y="51.84" width="558" height="332.64"/>
  </clipPath>
 </defs>
</svg>
