<?xml version="1.0" encoding="utf-8" standalone="no"?>
<!DOCTYPE svg PUBLIC "-//W3C//DTD SVG 1.1//EN"
  "http://www.w3.org/Graphics/SVG/1.1/DTD/svg11.dtd">
<svg xmlns:xlink="http://www.w3.org/1999/xlink" width="864pt" height="576pt" viewBox="0 0 864 576" xmlns="http://www.w3.org/2000/svg" version="1.1">
 <metadata>
  <rdf:RDF xmlns:dc="http://purl.org/dc/elements/1.1/" xmlns:cc="http://creativecommons.org/ns#" xmlns:rdf="http://www.w3.org/1999/02/22-rdf-syntax-ns#">
   <cc:Work>
    <dc:type rdf:resource="http://purl.org/dc/dcmitype/StillImage"/>
    <dc:date>2026-01-06T11:54:40.899433</dc:date>
    <dc:format>image/svg+xml</dc:format>
    <dc:creator>
     <cc:Agent>
      <dc:title>Matplotlib v3.10.8, https://matplotlib.org/</dc:title>
     </cc:Agent>
    </dc:creator>
   </cc:Work>
  </rdf:RDF>
 </metadata>
 <defs>
  <style type="text/css">*{stroke-linejoin: round; stroke-linecap: butt}</style>
 </defs>
 <g id="figure_1">
  <g id="patch_1">
   <path d="M 0 576 
L 864 576 
L 864 0 
L 0 0 
z
"/>
  </g>
  <g id="axes_1">
   <g id="patch_2">
    <path d="M 108 512.64 
L 777.6 512.64 
L 777.6 69.12 
L 108 69.12 
z
"/>
   </g>
   <g id="matplotlib.axis_1">
    <g id="xtick_1">
     <g id="line2d_1">
      <path d="M 108 512.64 
L 108 69.12 
" clip-path="url(#p0dc07615c2)" style="fill: none; stroke: #ffffff; stroke-width: 0.8; stroke-linecap: round"/>
     </g>
     <g id="text_1">
      <!-- 0 -->
      <g style="fill: #ffffff" transform="translate(104.81875 527.238438) scale(0.1 -0.1)">
       <defs>
        <path id="DejaVuSans-30" d="M 2034 4250 
Q 1547 4250 1301 3770 
Q 1056 3291 1056 2328 
Q 1056 1369 1301 889 
Q 1547 409 2034 409 
Q 2525 409 2770 889 
Q 3016 1369 3016 2328 
Q 3016 3291 2770 3770 
Q 2525 4250 2034 4250 
z
M 2034 4750 
Q 2819 4750 3233 4129 
Q 3647 3509 3647 2328 
Q 3647 1150 3233 529 
Q 2819 -91 2034 -91 
Q 1250 -91 836 529 
Q 422 1150 422 2328 
Q 422 3509 836 4129 
Q 1250 4750 2034 4750 
z
" transform="scale(0.015625)"/>
       </defs>
       <use xlink:href="#DejaVuSans-30"/>
      </g>
     </g>
    </g>
    <g id="xtick_2">
     <g id="line2d_2">
      <path d="M 219.6 512.64 
L 219.6 69.12 
" clip-path="url(#p0dc07615c2)" style="fill: none; stroke: #ffffff; stroke-width: 0.8; stroke-linecap: round"/>
     </g>
     <g id="text_2">
      <!-- 1 -->
      <g style="fill: #ffffff" transform="translate(216.41875 527.238438) scale(0.1 -0.1)">
       <defs>
        <path id="DejaVuSans-31" d="M 794 531 
L 1825 531 
L 1825 4091 
L 703 3866 
L 703 4441 
L 1819 4666 
L 2450 4666 
L 2450 531 
L 3481 531 
L 3481 0 
L 794 0 
L 794 531 
z
" transform="scale(0.015625)"/>
       </defs>
       <use xlink:href="#DejaVuSans-31"/>
      </g>
     </g>
    </g>
    <g id="xtick_3">
     <g id="line2d_3">
      <path d="M 331.2 512.64 
L 331.2 69.12 
" clip-path="url(#p0dc07615c2)" style="fill: none; stroke: #ffffff; stroke-width: 0.8; stroke-linecap: round"/>
     </g>
     <g id="text_3">
      <!-- 2 -->
      <g style="fill: #ffffff" transform="translate(328.01875 527.238438) scale(0.1 -0.1)">
       <defs>
        <path id="DejaVuSans-32" d="M 1228 531 
L 3431 531 
L 3431 0 
L 469 0 
L 469 531 
Q 828 903 1448 1529 
Q 2069 2156 2228 2338 
Q 2531 2678 2651 2914 
Q 2772 3150 2772 3378 
Q 2772 3750 2511 3984 
Q 2250 4219 1831 4219 
Q 1534 4219 1204 4116 
Q 875 4013 500 3803 
L 500 4441 
Q 881 4594 1212 4672 
Q 1544 4750 1819 4750 
Q 2544 4750 2975 4387 
Q 3406 4025 3406 3419 
Q 3406 3131 3298 2873 
Q 3191 2616 2906 2266 
Q 2828 2175 2409 1742 
Q 1991 1309 1228 531 
z
" transform="scale(0.015625)"/>
       </defs>
       <use xlink:href="#DejaVuSans-32"/>
      </g>
     </g>
    </g>
    <g id="xtick_4">
     <g id="line2d_4">
      <path d="M 442.8 512.64 
L 442.8 69.12 
" clip-path="url(#p0dc07615c2)" style="fill: none; stroke: #ffffff; stroke-width: 0.8; stroke-linecap: round"/>
     </g>
     <g id="text_4">
      <!-- 3 -->
      <g style="fill: #ffffff" transform="translate(439.61875 527.238438) scale(0.1 -0.1)">
       <defs>
        <path id="DejaVuSans-33" d="M 2597 2516 
Q 3050 2419 3304 2112 
Q 3559 1806 3559 1356 
Q 3559 666 3084 287 
Q 2609 -91 1734 -91 
Q 1441 -91 1130 -33 
Q 819 25 488 141 
L 488 750 
Q 750 597 1062 519 
Q 1375 441 1716 441 
Q 2309 441 2620 675 
Q 2931 909 2931 1356 
Q 2931 1769 2642 2001 
Q 2353 2234 1838 2234 
L 1294 2234 
L 1294 2753 
L 1863 2753 
Q 2328 2753 2575 2939 
Q 2822 3125 2822 3475 
Q 2822 3834 2567 4026 
Q 2313 4219 1838 4219 
Q 1578 4219 1281 4162 
Q 984 4106 628 3988 
L 628 4550 
Q 988 4650 1302 4700 
Q 1616 4750 1894 4750 
Q 2613 4750 3031 4423 
Q 3450 4097 3450 3541 
Q 3450 3153 3228 2886 
Q 3006 2619 2597 2516 
z
" transform="scale(0.015625)"/>
       </defs>
       <use xlink:href="#DejaVuSans-33"/>
      </g>
     </g>
    </g>
    <g id="xtick_5">
     <g id="line2d_5">
      <path d="M 554.4 512.64 
L 554.4 69.12 
" clip-path="url(#p0dc07615c2)" style="fill: none; stroke: #ffffff; stroke-width: 0.8; stroke-linecap: round"/>
     </g>
     <g id="text_5">
      <!-- 4 -->
      <g style="fill: #ffffff" transform="translate(551.21875 527.238438) scale(0.1 -0.1)">
       <defs>
        <path id="DejaVuSans-34" d="M 2419 4116 
L 825 1625 
L 2419 1625 
L 2419 4116 
z
M 2253 4666 
L 3047 4666 
L 3047 1625 
L 3713 1625 
L 3713 1100 
L 3047 1100 
L 3047 0 
L 2419 0 
L 2419 1100 
L 313 1100 
L 313 1709 
L 2253 4666 
z
" transform="scale(0.015625)"/>
       </defs>
       <use xlink:href="#DejaVuSans-34"/>
      </g>
     </g>
    </g>
    <g id="xtick_6">
     <g id="line2d_6">
      <path d="M 666 512.64 
L 666 69.12 
" clip-path="url(#p0dc07615c2)" style="fill: none; stroke: #ffffff; stroke-width: 0.8; stroke-linecap: round"/>
     </g>
     <g id="text_6">
      <!-- 5 -->
      <g style="fill: #ffffff" transform="translate(662.81875 527.238438) scale(0.1 -0.1)">
       <defs>
        <path id="DejaVuSans-35" d="M 691 4666 
L 3169 4666 
L 3169 4134 
L 1269 4134 
L 1269 2991 
Q 1406 3038 1543 3061 
Q 1681 3084 1819 3084 
Q 2600 3084 3056 2656 
Q 3513 2228 3513 1497 
Q 3513 744 3044 326 
Q 2575 -91 1722 -91 
Q 1428 -91 1123 -41 
Q 819 9 494 109 
L 494 744 
Q 775 591 1075 516 
Q 1375 441 1709 441 
Q 2250 441 2565 725 
Q 2881 1009 2881 1497 
Q 2881 1984 2565 2268 
Q 2250 2553 1709 2553 
Q 1456 2553 1204 2497 
Q 953 2441 691 2322 
L 691 4666 
z
" transform="scale(0.015625)"/>
       </defs>
       <use xlink:href="#DejaVuSans-35"/>
      </g>
     </g>
    </g>
    <g id="xtick_7">
     <g id="line2d_7">
      <path d="M 777.6 512.64 
L 777.6 69.12 
" clip-path="url(#p0dc07615c2)" style="fill: none; stroke: #ffffff; stroke-width: 0.8; stroke-linecap: round"/>
     </g>
     <g id="text_7">
      <!-- 6 -->
      <g style="fill: #ffffff" transform="translate(774.41875 527.238438) scale(0.1 -0.1)">
       <defs>
        <path id="DejaVuSans-36" d="M 2113 2584 
Q 1688 2584 1439 2293 
Q 1191 2003 1191 1497 
Q 1191 994 1439 701 
Q 1688 409 2113 409 
Q 2538 409 2786 701 
Q 3034 994 3034 1497 
Q 3034 2003 2786 2293 
Q 2538 2584 2113 2584 
z
M 3366 4563 
L 3366 3988 
Q 3128 4100 2886 4159 
Q 2644 4219 2406 4219 
Q 1781 4219 1451 3797 
Q 1122 3375 1075 2522 
Q 1259 2794 1537 2939 
Q 1816 3084 2150 3084 
Q 2853 3084 3261 2657 
Q 3669 2231 3669 1497 
Q 3669 778 3244 343 
Q 2819 -91 2113 -91 
Q 1303 -91 875 529 
Q 447 1150 447 2328 
Q 447 3434 972 4092 
Q 1497 4750 2381 4750 
Q 2619 4750 2861 4703 
Q 3103 4656 3366 4563 
z
" transform="scale(0.015625)"/>
       </defs>
       <use xlink:href="#DejaVuSans-36"/>
      </g>
     </g>
    </g>
   </g>
   <g id="matplotlib.axis_2">
    <g id="ytick_1">
     <g id="line2d_8">
      <path d="M 108 512.64 
L 777.6 512.64 
" clip-path="url(#p0dc07615c2)" style="fill: none; stroke: #ffffff; stroke-width: 0.8; stroke-linecap: round"/>
     </g>
     <g id="text_8">
      <!-- 0 -->
      <g style="fill: #ffffff" transform="translate(94.6375 516.439219) scale(0.1 -0.1)">
       <use xlink:href="#DejaVuSans-30"/>
      </g>
     </g>
    </g>
    <g id="ytick_2">
     <g id="line2d_9">
      <path d="M 108 438.72 
L 777.6 438.72 
" clip-path="url(#p0dc07615c2)" style="fill: none; stroke: #ffffff; stroke-width: 0.8; stroke-linecap: round"/>
     </g>
     <g id="text_9">
      <!-- 1 -->
      <g style="fill: #ffffff" transform="translate(94.6375 442.519219) scale(0.1 -0.1)">
       <use xlink:href="#DejaVuSans-31"/>
      </g>
     </g>
    </g>
    <g id="ytick_3">
     <g id="line2d_10">
      <path d="M 108 364.8 
L 777.6 364.8 
" clip-path="url(#p0dc07615c2)" style="fill: none; stroke: #ffffff; stroke-width: 0.8; stroke-linecap: round"/>
     </g>
     <g id="text_10">
      <!-- 2 -->
      <g style="fill: #ffffff" transform="translate(94.6375 368.599219) scale(0.1 -0.1)">
       <use xlink:href="#DejaVuSans-32"/>
      </g>
     </g>
    </g>
    <g id="ytick_4">
     <g id="line2d_11">
      <path d="M 108 290.88 
L 777.6 290.88 
" clip-path="url(#p0dc07615c2)" style="fill: none; stroke: #ffffff; stroke-width: 0.8; stroke-linecap: round"/>
     </g>
     <g id="text_11">
      <!-- 3 -->
      <g style="fill: #ffffff" transform="translate(94.6375 294.679219) scale(0.1 -0.1)">
       <use xlink:href="#DejaVuSans-33"/>
      </g>
     </g>
    </g>
    <g id="ytick_5">
     <g id="line2d_12">
      <path d="M 108 216.96 
L 777.6 216.96 
" clip-path="url(#p0dc07615c2)" style="fill: none; stroke: #ffffff; stroke-width: 0.8; stroke-linecap: round"/>
     </g>
     <g id="text_12">
      <!-- 4 -->
      <g style="fill: #ffffff" transform="translate(94.6375 220.759219) scale(0.1 -0.1)">
       <use xlink:href="#DejaVuSans-34"/>
      </g>
     </g>
    </g>
    <g id="ytick_6">
     <g id="line2d_13">
      <path d="M 108 143.04 
L 777.6 143.04 
" clip-path="url(#p0dc07615c2)" style="fill: none; stroke: #ffffff; stroke-width: 0.8; stroke-linecap: round"/>
     </g>
     <g id="text_13">
      <!-- 5 -->
      <g style="fill: #ffffff" transform="translate(94.6375 146.839219) scale(0.1 -0.1)">
       <use xlink:href="#DejaVuSans-35"/>
      </g>
     </g>
    </g>
    <g id="ytick_7">
     <g id="line2d_14">
      <path d="M 108 69.12 
L 777.6 69.12 
" clip-path="url(#p0dc07615c2)" style="fill: none; stroke: #ffffff; stroke-width: 0.8; stroke-linecap: round"/>
     </g>
     <g id="text_14">
      <!-- 6 -->
      <g style="fill: #ffffff" transform="translate(94.6375 72.919219) scale(0.1 -0.1)">
       <use xlink:href="#DejaVuSans-36"/>
      </g>
     </g>
    </g>
   </g>
   <g id="PolyQuadMesh_1">
    <path d="M 108 512.64 
L 108 438.72 
L 219.6 438.72 
L 219.6 512.64 
L 108 512.64 
z
" clip-path="url(#p0dc07615c2)" style="fill: #08080b; fill-opacity: 0.15"/>
    <path d="M 219.6 512.64 
L 219.6 438.72 
L 331.2 438.72 
L 331.2 512.64 
L 219.6 512.64 
z
" clip-path="url(#p0dc07615c2)" style="fill: #1d1d28; fill-opacity: 0.15"/>
    <path d="M 331.2 512.64 
L 331.2 438.72 
L 442.8 438.72 
L 442.8 512.64 
L 331.2 512.64 
z
" clip-path="url(#p0dc07615c2)" style="fill: #3f3f58; fill-opacity: 0.15"/>
    <path d="M 442.8 512.64 
L 442.8 438.72 
L 554.4 438.72 
L 554.4 512.64 
L 442.8 512.64 
z
" clip-path="url(#p0dc07615c2)" style="fill: #343448; fill-opacity: 0.15"/>
    <path d="M 554.4 512.64 
L 554.4 438.72 
L 666 438.72 
L 666 512.64 
L 554.4 512.64 
z
" clip-path="url(#p0dc07615c2)" style="fill: #181821; fill-opacity: 0.15"/>
    <path d="M 666 512.64 
L 666 438.72 
L 777.6 438.72 
L 777.6 512.64 
L 666 512.64 
z
" clip-path="url(#p0dc07615c2)" style="fill: #09090c; fill-opacity: 0.15"/>
    <path d="M 108 438.72 
L 108 364.8 
L 219.6 364.8 
L 219.6 438.72 
L 108 438.72 
z
" clip-path="url(#p0dc07615c2)" style="fill: #42425d; fill-opacity: 0.15"/>
    <path d="M 219.6 438.72 
L 219.6 364.8 
L 331.2 364.8 
L 331.2 438.72 
L 219.6 438.72 
z
" clip-path="url(#p0dc07615c2)" style="fill: #798799; fill-opacity: 0.15"/>
    <path d="M 331.2 438.72 
L 331.2 364.8 
L 442.8 364.8 
L 442.8 438.72 
L 331.2 438.72 
z
" clip-path="url(#p0dc07615c2)" style="fill: #8ea4ae; fill-opacity: 0.15"/>
    <path d="M 442.8 438.72 
L 442.8 364.8 
L 554.4 364.8 
L 554.4 438.72 
L 442.8 438.72 
z
" clip-path="url(#p0dc07615c2)" style="fill: #8da3ad; fill-opacity: 0.15"/>
    <path d="M 554.4 438.72 
L 554.4 364.8 
L 666 364.8 
L 666 438.72 
L 554.4 438.72 
z
" clip-path="url(#p0dc07615c2)" style="fill: #5e627d; fill-opacity: 0.15"/>
    <path d="M 666 438.72 
L 666 364.8 
L 777.6 364.8 
L 777.6 438.72 
L 666 438.72 
z
" clip-path="url(#p0dc07615c2)" style="fill: #2d2d3e; fill-opacity: 0.15"/>
    <path d="M 108 364.8 
L 108 290.88 
L 219.6 290.88 
L 219.6 364.8 
L 108 364.8 
z
" clip-path="url(#p0dc07615c2)" style="fill: #778597; fill-opacity: 0.15"/>
    <path d="M 219.6 364.8 
L 219.6 290.88 
L 331.2 290.88 
L 331.2 364.8 
L 219.6 364.8 
z
" clip-path="url(#p0dc07615c2)" style="fill: #bcd4d4; fill-opacity: 0.15"/>
    <path d="M 331.2 364.8 
L 331.2 290.88 
L 442.8 290.88 
L 442.8 364.8 
L 331.2 364.8 
z
" clip-path="url(#p0dc07615c2)" style="fill: #cfe0e0; fill-opacity: 0.15"/>
    <path d="M 442.8 364.8 
L 442.8 290.88 
L 554.4 290.88 
L 554.4 364.8 
L 442.8 364.8 
z
" clip-path="url(#p0dc07615c2)" style="fill: #eaf2f2; fill-opacity: 0.15"/>
    <path d="M 554.4 364.8 
L 554.4 290.88 
L 666 290.88 
L 666 364.8 
L 554.4 364.8 
z
" clip-path="url(#p0dc07615c2)" style="fill: #ffffff; fill-opacity: 0.15"/>
    <path d="M 666 364.8 
L 666 290.88 
L 777.6 290.88 
L 777.6 364.8 
L 666 364.8 
z
" clip-path="url(#p0dc07615c2)" style="fill: #90a8b0; fill-opacity: 0.15"/>
    <path d="M 108 290.88 
L 108 216.96 
L 219.6 216.96 
L 219.6 290.88 
L 108 290.88 
z
" clip-path="url(#p0dc07615c2)" style="fill: #4a4966; fill-opacity: 0.15"/>
    <path d="M 219.6 290.88 
L 219.6 216.96 
L 331.2 216.96 
L 331.2 290.88 
L 219.6 290.88 
z
" clip-path="url(#p0dc07615c2)" style="fill: #879ba7; fill-opacity: 0.15"/>
    <path d="M 331.2 290.88 
L 331.2 216.96 
L 442.8 216.96 
L 442.8 290.88 
L 331.2 290.88 
z
" clip-path="url(#p0dc07615c2)" style="fill: #889ca7; fill-opacity: 0.15"/>
    <path d="M 442.8 290.88 
L 442.8 216.96 
L 554.4 216.96 
L 554.4 290.88 
L 442.8 290.88 
z
" clip-path="url(#p0dc07615c2)" style="fill: #8ea4ae; fill-opacity: 0.15"/>
    <path d="M 554.4 290.88 
L 554.4 216.96 
L 666 216.96 
L 666 290.88 
L 554.4 290.88 
z
" clip-path="url(#p0dc07615c2)" style="fill: #c1d8d8; fill-opacity: 0.15"/>
    <path d="M 666 290.88 
L 666 216.96 
L 777.6 216.96 
L 777.6 290.88 
L 666 290.88 
z
" clip-path="url(#p0dc07615c2)" style="fill: #8396a3; fill-opacity: 0.15"/>
    <path d="M 108 216.96 
L 108 143.04 
L 219.6 143.04 
L 219.6 216.96 
L 108 216.96 
z
" clip-path="url(#p0dc07615c2)" style="fill: #111117; fill-opacity: 0.15"/>
    <path d="M 219.6 216.96 
L 219.6 143.04 
L 331.2 143.04 
L 331.2 216.96 
L 219.6 216.96 
z
" clip-path="url(#p0dc07615c2)" style="fill: #42425d; fill-opacity: 0.15"/>
    <path d="M 331.2 216.96 
L 331.2 143.04 
L 442.8 143.04 
L 442.8 216.96 
L 331.2 216.96 
z
" clip-path="url(#p0dc07615c2)" style="fill: #5d617d; fill-opacity: 0.15"/>
    <path d="M 442.8 216.96 
L 442.8 143.04 
L 554.4 143.04 
L 554.4 216.96 
L 442.8 216.96 
z
" clip-path="url(#p0dc07615c2)" style="fill: #454560; fill-opacity: 0.15"/>
    <path d="M 554.4 216.96 
L 554.4 143.04 
L 666 143.04 
L 666 216.96 
L 554.4 216.96 
z
" clip-path="url(#p0dc07615c2)" style="fill: #3b3b52; fill-opacity: 0.15"/>
    <path d="M 666 216.96 
L 666 143.04 
L 777.6 143.04 
L 777.6 216.96 
L 666 216.96 
z
" clip-path="url(#p0dc07615c2)" style="fill: #272737; fill-opacity: 0.15"/>
    <path d="M 108 143.04 
L 108 69.12 
L 219.6 69.12 
L 219.6 143.04 
L 108 143.04 
z
" clip-path="url(#p0dc07615c2)" style="fill-opacity: 0.15"/>
    <path d="M 219.6 143.04 
L 219.6 69.12 
L 331.2 69.12 
L 331.2 143.04 
L 219.6 143.04 
z
" clip-path="url(#p0dc07615c2)" style="fill: #232331; fill-opacity: 0.15"/>
    <path d="M 331.2 143.04 
L 331.2 69.12 
L 442.8 69.12 
L 442.8 143.04 
L 331.2 143.04 
z
" clip-path="url(#p0dc07615c2)" style="fill: #36364b; fill-opacity: 0.15"/>
    <path d="M 442.8 143.04 
L 442.8 69.12 
L 554.4 69.12 
L 554.4 143.04 
L 442.8 143.04 
z
" clip-path="url(#p0dc07615c2)" style="fill: #20202d; fill-opacity: 0.15"/>
    <path d="M 554.4 143.04 
L 554.4 69.12 
L 666 69.12 
L 666 143.04 
L 554.4 143.04 
z
" clip-path="url(#p0dc07615c2)" style="fill: #16161e; fill-opacity: 0.15"/>
    <path d="M 666 143.04 
L 666 69.12 
L 777.6 69.12 
L 777.6 143.04 
L 666 143.04 
z
" clip-path="url(#p0dc07615c2)" style="fill: #07070a; fill-opacity: 0.15"/>
   </g>
   <g id="patch_3">
    <path d="M 108 512.64 
L 108 69.12 
" style="fill: none; stroke: #ffffff; stroke-width: 0.8; stroke-linejoin: miter; stroke-linecap: square"/>
   </g>
   <g id="patch_4">
    <path d="M 777.6 512.64 
L 777.6 69.12 
" style="fill: none; stroke: #ffffff; stroke-width: 0.8; stroke-linejoin: miter; stroke-linecap: square"/>
   </g>
   <g id="patch_5">
    <path d="M 108 512.64 
L 777.6 512.64 
" style="fill: none; stroke: #ffffff; stroke-width: 0.8; stroke-linejoin: miter; stroke-linecap: square"/>
   </g>
   <g id="patch_6">
    <path d="M 108 69.12 
L 777.6 69.12 
" style="fill: none; stroke: #ffffff; stroke-width: 0.8; stroke-linejoin: miter; stroke-linecap: square"/>
   </g>
   <g id="text_15">
    <!-- ST -->
    <g style="fill: #ff7f0e" transform="translate(490.185937 109.39125) scale(0.12 -0.12)">
     <defs>
      <path id="DejaVuSans-Bold-53" d="M 3834 4519 
L 3834 3531 
Q 3450 3703 3084 3790 
Q 2719 3878 2394 3878 
Q 1963 3878 1756 3759 
Q 1550 3641 1550 3391 
Q 1550 3203 1689 3098 
Q 1828 2994 2194 2919 
L 2706 2816 
Q 3484 2659 3812 2340 
Q 4141 2022 4141 1434 
Q 4141 663 3683 286 
Q 3225 -91 2284 -91 
Q 1841 -91 1394 -6 
Q 947 78 500 244 
L 500 1259 
Q 947 1022 1364 901 
Q 1781 781 2169 781 
Q 2563 781 2772 912 
Q 2981 1044 2981 1288 
Q 2981 1506 2839 1625 
Q 2697 1744 2272 1838 
L 1806 1941 
Q 1106 2091 782 2419 
Q 459 2747 459 3303 
Q 459 4000 909 4375 
Q 1359 4750 2203 4750 
Q 2588 4750 2994 4692 
Q 3400 4634 3834 4519 
z
" transform="scale(0.015625)"/>
      <path id="DejaVuSans-Bold-54" d="M 31 4666 
L 4331 4666 
L 4331 3756 
L 2784 3756 
L 2784 0 
L 1581 0 
L 1581 3756 
L 31 3756 
L 31 4666 
z
" transform="scale(0.015625)"/>
     </defs>
     <use xlink:href="#DejaVuSans-Bold-53"/>
     <use xlink:href="#DejaVuSans-Bold-54" transform="translate(72.021484 0)"/>
    </g>
   </g>
   <g id="text_16">
    <!-- SI -->
    <g style="fill: #d62728" transform="translate(716.220937 183.31125) scale(0.12 -0.12)">
     <defs>
      <path id="DejaVuSans-53" d="M 3425 4513 
L 3425 3897 
Q 3066 4069 2747 4153 
Q 2428 4238 2131 4238 
Q 1616 4238 1336 4038 
Q 1056 3838 1056 3469 
Q 1056 3159 1242 3001 
Q 1428 2844 1947 2747 
L 2328 2669 
Q 3034 2534 3370 2195 
Q 3706 1856 3706 1288 
Q 3706 609 3251 259 
Q 2797 -91 1919 -91 
Q 1588 -91 1214 -16 
Q 841 59 441 206 
L 441 856 
Q 825 641 1194 531 
Q 1563 422 1919 422 
Q 2459 422 2753 634 
Q 3047 847 3047 1241 
Q 3047 1584 2836 1778 
Q 2625 1972 2144 2069 
L 1759 2144 
Q 1053 2284 737 2584 
Q 422 2884 422 3419 
Q 422 4038 858 4394 
Q 1294 4750 2059 4750 
Q 2388 4750 2728 4690 
Q 3069 4631 3425 4513 
z
" transform="scale(0.015625)"/>
      <path id="DejaVuSans-49" d="M 628 4666 
L 1259 4666 
L 1259 0 
L 628 0 
L 628 4666 
z
" transform="scale(0.015625)"/>
     </defs>
     <use xlink:href="#DejaVuSans-53"/>
     <use xlink:href="#DejaVuSans-49" transform="translate(63.476562 0)"/>
    </g>
   </g>
   <g id="text_17">
    <!-- ST -->
    <g style="fill: #ff7f0e" transform="translate(601.785938 109.39125) scale(0.12 -0.12)">
     <use xlink:href="#DejaVuSans-Bold-53"/>
     <use xlink:href="#DejaVuSans-Bold-54" transform="translate(72.021484 0)"/>
    </g>
   </g>
   <g id="text_18">
    <!-- ST -->
    <g style="fill: #ff7f0e" transform="translate(714.32625 109.39125) scale(0.12 -0.12)">
     <defs>
      <path id="DejaVuSans-54" d="M -19 4666 
L 3928 4666 
L 3928 4134 
L 2272 4134 
L 2272 0 
L 1638 0 
L 1638 4134 
L -19 4134 
L -19 4666 
z
" transform="scale(0.015625)"/>
     </defs>
     <use xlink:href="#DejaVuSans-53"/>
     <use xlink:href="#DejaVuSans-54" transform="translate(63.476562 0)"/>
    </g>
   </g>
   <g id="text_19">
    <!-- ST -->
    <g style="fill: #ff7f0e" transform="translate(491.12625 257.23125) scale(0.12 -0.12)">
     <use xlink:href="#DejaVuSans-53"/>
     <use xlink:href="#DejaVuSans-54" transform="translate(63.476562 0)"/>
    </g>
   </g>
   <g id="text_20">
    <!-- ST -->
    <g style="fill: #ff7f0e" transform="translate(602.72625 183.31125) scale(0.12 -0.12)">
     <use xlink:href="#DejaVuSans-53"/>
     <use xlink:href="#DejaVuSans-54" transform="translate(63.476562 0)"/>
    </g>
   </g>
   <g id="text_21">
    <!-- SI -->
    <g style="fill: #d62728" transform="translate(381.420937 257.23125) scale(0.12 -0.12)">
     <use xlink:href="#DejaVuSans-53"/>
     <use xlink:href="#DejaVuSans-49" transform="translate(63.476562 0)"/>
    </g>
   </g>
   <g id="text_22">
    <!-- SI -->
    <g style="fill: #d62728" transform="translate(381.420937 183.31125) scale(0.12 -0.12)">
     <use xlink:href="#DejaVuSans-53"/>
     <use xlink:href="#DejaVuSans-49" transform="translate(63.476562 0)"/>
    </g>
   </g>
   <g id="text_23">
    <!-- SI -->
    <g style="fill: #d62728" transform="translate(381.420937 331.15125) scale(0.12 -0.12)">
     <use xlink:href="#DejaVuSans-53"/>
     <use xlink:href="#DejaVuSans-49" transform="translate(63.476562 0)"/>
    </g>
   </g>
   <g id="text_24">
    <!-- LY -->
    <g style="fill: #8c564b" transform="translate(379.77 109.39125) scale(0.12 -0.12)">
     <defs>
      <path id="DejaVuSans-Bold-4c" d="M 588 4666 
L 1791 4666 
L 1791 909 
L 3903 909 
L 3903 0 
L 588 0 
L 588 4666 
z
" transform="scale(0.015625)"/>
      <path id="DejaVuSans-Bold-59" d="M -63 4666 
L 1253 4666 
L 2316 3003 
L 3378 4666 
L 4697 4666 
L 2919 1966 
L 2919 0 
L 1716 0 
L 1716 1966 
L -63 4666 
z
" transform="scale(0.015625)"/>
     </defs>
     <use xlink:href="#DejaVuSans-Bold-4c"/>
     <use xlink:href="#DejaVuSans-Bold-59" transform="translate(48.095703 0)"/>
    </g>
   </g>
   <g id="text_25">
    <!-- LY -->
    <g style="fill: #8c564b" transform="translate(268.17 257.23125) scale(0.12 -0.12)">
     <use xlink:href="#DejaVuSans-Bold-4c"/>
     <use xlink:href="#DejaVuSans-Bold-59" transform="translate(48.095703 0)"/>
    </g>
   </g>
   <g id="text_26">
    <!-- LY -->
    <g style="fill: #8c564b" transform="translate(268.17 109.39125) scale(0.12 -0.12)">
     <use xlink:href="#DejaVuSans-Bold-4c"/>
     <use xlink:href="#DejaVuSans-Bold-59" transform="translate(48.095703 0)"/>
    </g>
   </g>
   <g id="text_27">
    <!-- LY -->
    <g style="fill: #8c564b" transform="translate(268.17 331.15125) scale(0.12 -0.12)">
     <use xlink:href="#DejaVuSans-Bold-4c"/>
     <use xlink:href="#DejaVuSans-Bold-59" transform="translate(48.095703 0)"/>
    </g>
   </g>
   <g id="text_28">
    <!-- UP -->
    <g style="fill: #17becf" transform="translate(155.790938 331.15125) scale(0.12 -0.12)">
     <defs>
      <path id="DejaVuSans-55" d="M 556 4666 
L 1191 4666 
L 1191 1831 
Q 1191 1081 1462 751 
Q 1734 422 2344 422 
Q 2950 422 3222 751 
Q 3494 1081 3494 1831 
L 3494 4666 
L 4128 4666 
L 4128 1753 
Q 4128 841 3676 375 
Q 3225 -91 2344 -91 
Q 1459 -91 1007 375 
Q 556 841 556 1753 
L 556 4666 
z
" transform="scale(0.015625)"/>
      <path id="DejaVuSans-50" d="M 1259 4147 
L 1259 2394 
L 2053 2394 
Q 2494 2394 2734 2622 
Q 2975 2850 2975 3272 
Q 2975 3691 2734 3919 
Q 2494 4147 2053 4147 
L 1259 4147 
z
M 628 4666 
L 2053 4666 
Q 2838 4666 3239 4311 
Q 3641 3956 3641 3272 
Q 3641 2581 3239 2228 
Q 2838 1875 2053 1875 
L 1259 1875 
L 1259 0 
L 628 0 
L 628 4666 
z
" transform="scale(0.015625)"/>
     </defs>
     <use xlink:href="#DejaVuSans-55"/>
     <use xlink:href="#DejaVuSans-50" transform="translate(73.193359 0)"/>
    </g>
   </g>
   <g id="text_29">
    <!-- UP -->
    <g style="fill: #17becf" transform="translate(267.390937 405.07125) scale(0.12 -0.12)">
     <use xlink:href="#DejaVuSans-55"/>
     <use xlink:href="#DejaVuSans-50" transform="translate(73.193359 0)"/>
    </g>
   </g>
   <g id="text_30">
    <!-- WK -->
    <g style="fill: #1f77b4" transform="translate(375.733125 405.07125) scale(0.12 -0.12)">
     <defs>
      <path id="DejaVuSans-Bold-57" d="M 191 4666 
L 1344 4666 
L 2150 1275 
L 2950 4666 
L 4109 4666 
L 4909 1275 
L 5716 4666 
L 6859 4666 
L 5759 0 
L 4372 0 
L 3525 3547 
L 2688 0 
L 1300 0 
L 191 4666 
z
" transform="scale(0.015625)"/>
      <path id="DejaVuSans-Bold-4b" d="M 588 4666 
L 1791 4666 
L 1791 2963 
L 3525 4666 
L 4922 4666 
L 2675 2456 
L 5153 0 
L 3647 0 
L 1791 1838 
L 1791 0 
L 588 0 
L 588 4666 
z
" transform="scale(0.015625)"/>
     </defs>
     <use xlink:href="#DejaVuSans-Bold-57"/>
     <use xlink:href="#DejaVuSans-Bold-4b" transform="translate(110.302734 0)"/>
    </g>
   </g>
   <g id="text_31">
    <!-- DN -->
    <g style="fill: #9467bd" transform="translate(377.89125 478.99125) scale(0.12 -0.12)">
     <defs>
      <path id="DejaVuSans-44" d="M 1259 4147 
L 1259 519 
L 2022 519 
Q 2988 519 3436 956 
Q 3884 1394 3884 2338 
Q 3884 3275 3436 3711 
Q 2988 4147 2022 4147 
L 1259 4147 
z
M 628 4666 
L 1925 4666 
Q 3281 4666 3915 4102 
Q 4550 3538 4550 2338 
Q 4550 1131 3912 565 
Q 3275 0 1925 0 
L 628 0 
L 628 4666 
z
" transform="scale(0.015625)"/>
      <path id="DejaVuSans-4e" d="M 628 4666 
L 1478 4666 
L 3547 763 
L 3547 4666 
L 4159 4666 
L 4159 0 
L 3309 0 
L 1241 3903 
L 1241 0 
L 628 0 
L 628 4666 
z
" transform="scale(0.015625)"/>
     </defs>
     <use xlink:href="#DejaVuSans-44"/>
     <use xlink:href="#DejaVuSans-4e" transform="translate(77.001953 0)"/>
    </g>
   </g>
   <g id="text_32">
    <!-- DN -->
    <g style="fill: #9467bd" transform="translate(489.49125 478.99125) scale(0.12 -0.12)">
     <use xlink:href="#DejaVuSans-44"/>
     <use xlink:href="#DejaVuSans-4e" transform="translate(77.001953 0)"/>
    </g>
   </g>
   <g id="text_33">
    <!-- WK -->
    <g style="fill: #1f77b4" transform="translate(487.333125 405.07125) scale(0.12 -0.12)">
     <use xlink:href="#DejaVuSans-Bold-57"/>
     <use xlink:href="#DejaVuSans-Bold-4b" transform="translate(110.302734 0)"/>
    </g>
   </g>
   <g id="text_34">
    <!-- DN -->
    <g style="fill: #9467bd" transform="translate(711.797812 478.99125) scale(0.12 -0.12)">
     <defs>
      <path id="DejaVuSans-Bold-44" d="M 1791 3756 
L 1791 909 
L 2222 909 
Q 2959 909 3348 1275 
Q 3738 1641 3738 2338 
Q 3738 3031 3350 3393 
Q 2963 3756 2222 3756 
L 1791 3756 
z
M 588 4666 
L 1856 4666 
Q 2919 4666 3439 4514 
Q 3959 4363 4331 4000 
Q 4659 3684 4818 3271 
Q 4978 2859 4978 2338 
Q 4978 1809 4818 1395 
Q 4659 981 4331 666 
Q 3956 303 3431 151 
Q 2906 0 1856 0 
L 588 0 
L 588 4666 
z
" transform="scale(0.015625)"/>
      <path id="DejaVuSans-Bold-4e" d="M 588 4666 
L 1931 4666 
L 3628 1466 
L 3628 4666 
L 4769 4666 
L 4769 0 
L 3425 0 
L 1728 3200 
L 1728 0 
L 588 0 
L 588 4666 
z
" transform="scale(0.015625)"/>
     </defs>
     <use xlink:href="#DejaVuSans-Bold-44"/>
     <use xlink:href="#DejaVuSans-Bold-4e" transform="translate(83.007812 0)"/>
    </g>
   </g>
   <g id="text_35">
    <!-- UP -->
    <g style="fill: #17becf" transform="translate(155.790938 405.07125) scale(0.12 -0.12)">
     <use xlink:href="#DejaVuSans-55"/>
     <use xlink:href="#DejaVuSans-50" transform="translate(73.193359 0)"/>
    </g>
   </g>
   <g id="text_36">
    <!-- ST -->
    <g style="fill: #ff7f0e" transform="translate(491.12625 183.31125) scale(0.12 -0.12)">
     <use xlink:href="#DejaVuSans-53"/>
     <use xlink:href="#DejaVuSans-54" transform="translate(63.476562 0)"/>
    </g>
   </g>
   <g id="text_37">
    <!-- WK -->
    <g style="fill: #1f77b4" transform="translate(598.933125 331.15125) scale(0.12 -0.12)">
     <use xlink:href="#DejaVuSans-Bold-57"/>
     <use xlink:href="#DejaVuSans-Bold-4b" transform="translate(110.302734 0)"/>
    </g>
   </g>
   <g id="text_38">
    <!-- ST -->
    <g style="fill: #ff7f0e" transform="translate(602.72625 257.23125) scale(0.12 -0.12)">
     <use xlink:href="#DejaVuSans-53"/>
     <use xlink:href="#DejaVuSans-54" transform="translate(63.476562 0)"/>
    </g>
   </g>
   <g id="text_39">
    <!-- WK -->
    <g style="fill: #1f77b4" transform="translate(487.333125 331.15125) scale(0.12 -0.12)">
     <use xlink:href="#DejaVuSans-Bold-57"/>
     <use xlink:href="#DejaVuSans-Bold-4b" transform="translate(110.302734 0)"/>
    </g>
   </g>
   <g id="text_40">
    <!-- UP -->
    <g style="fill: #17becf" transform="translate(267.390937 478.99125) scale(0.12 -0.12)">
     <use xlink:href="#DejaVuSans-55"/>
     <use xlink:href="#DejaVuSans-50" transform="translate(73.193359 0)"/>
    </g>
   </g>
   <g id="text_41">
    <!-- SI -->
    <g style="fill: #d62728" transform="translate(716.220937 257.23125) scale(0.12 -0.12)">
     <use xlink:href="#DejaVuSans-53"/>
     <use xlink:href="#DejaVuSans-49" transform="translate(63.476562 0)"/>
    </g>
   </g>
   <g id="text_42">
    <!-- LY -->
    <g style="fill: #8c564b" transform="translate(268.17 183.31125) scale(0.12 -0.12)">
     <use xlink:href="#DejaVuSans-Bold-4c"/>
     <use xlink:href="#DejaVuSans-Bold-59" transform="translate(48.095703 0)"/>
    </g>
   </g>
   <g id="text_43">
    <!-- LY -->
    <g style="fill: #8c564b" transform="translate(156.57 183.31125) scale(0.12 -0.12)">
     <use xlink:href="#DejaVuSans-Bold-4c"/>
     <use xlink:href="#DejaVuSans-Bold-59" transform="translate(48.095703 0)"/>
    </g>
   </g>
   <g id="text_44">
    <!-- LY -->
    <g style="fill: #8c564b" transform="translate(156.57 109.39125) scale(0.12 -0.12)">
     <use xlink:href="#DejaVuSans-Bold-4c"/>
     <use xlink:href="#DejaVuSans-Bold-59" transform="translate(48.095703 0)"/>
    </g>
   </g>
   <g id="text_45">
    <!-- LY -->
    <g style="fill: #8c564b" transform="translate(156.57 257.23125) scale(0.12 -0.12)">
     <use xlink:href="#DejaVuSans-Bold-4c"/>
     <use xlink:href="#DejaVuSans-Bold-59" transform="translate(48.095703 0)"/>
    </g>
   </g>
   <g id="text_46">
    <!-- UP -->
    <g style="fill: #17becf" transform="translate(154.53 478.99125) scale(0.12 -0.12)">
     <defs>
      <path id="DejaVuSans-Bold-55" d="M 588 4666 
L 1791 4666 
L 1791 1869 
Q 1791 1291 1980 1042 
Q 2169 794 2597 794 
Q 3028 794 3217 1042 
Q 3406 1291 3406 1869 
L 3406 4666 
L 4609 4666 
L 4609 1869 
Q 4609 878 4112 393 
Q 3616 -91 2597 -91 
Q 1581 -91 1084 393 
Q 588 878 588 1869 
L 588 4666 
z
" transform="scale(0.015625)"/>
      <path id="DejaVuSans-Bold-50" d="M 588 4666 
L 2584 4666 
Q 3475 4666 3951 4270 
Q 4428 3875 4428 3144 
Q 4428 2409 3951 2014 
Q 3475 1619 2584 1619 
L 1791 1619 
L 1791 0 
L 588 0 
L 588 4666 
z
M 1791 3794 
L 1791 2491 
L 2456 2491 
Q 2806 2491 2997 2661 
Q 3188 2831 3188 3144 
Q 3188 3456 2997 3625 
Q 2806 3794 2456 3794 
L 1791 3794 
z
" transform="scale(0.015625)"/>
     </defs>
     <use xlink:href="#DejaVuSans-Bold-55"/>
     <use xlink:href="#DejaVuSans-Bold-50" transform="translate(81.201172 0)"/>
    </g>
   </g>
   <g id="text_47">
    <!-- WK -->
    <g style="fill: #1f77b4" transform="translate(598.933125 405.07125) scale(0.12 -0.12)">
     <use xlink:href="#DejaVuSans-Bold-57"/>
     <use xlink:href="#DejaVuSans-Bold-4b" transform="translate(110.302734 0)"/>
    </g>
   </g>
   <g id="text_48">
    <!-- WK -->
    <g style="fill: #1f77b4" transform="translate(598.933125 478.99125) scale(0.12 -0.12)">
     <use xlink:href="#DejaVuSans-Bold-57"/>
     <use xlink:href="#DejaVuSans-Bold-4b" transform="translate(110.302734 0)"/>
    </g>
   </g>
   <g id="text_49">
    <!-- WK -->
    <g style="fill: #1f77b4" transform="translate(711.932812 405.07125) scale(0.12 -0.12)">
     <defs>
      <path id="DejaVuSans-57" d="M 213 4666 
L 850 4666 
L 1831 722 
L 2809 4666 
L 3519 4666 
L 4500 722 
L 5478 4666 
L 6119 4666 
L 4947 0 
L 4153 0 
L 3169 4050 
L 2175 0 
L 1381 0 
L 213 4666 
z
" transform="scale(0.015625)"/>
      <path id="DejaVuSans-4b" d="M 628 4666 
L 1259 4666 
L 1259 2694 
L 3353 4666 
L 4166 4666 
L 1850 2491 
L 4331 0 
L 3500 0 
L 1259 2247 
L 1259 0 
L 628 0 
L 628 4666 
z
" transform="scale(0.015625)"/>
     </defs>
     <use xlink:href="#DejaVuSans-57"/>
     <use xlink:href="#DejaVuSans-4b" transform="translate(98.876953 0)"/>
    </g>
   </g>
   <g id="text_50">
    <!-- DN -->
    <g style="fill: #9467bd" transform="translate(711.797812 331.15125) scale(0.12 -0.12)">
     <use xlink:href="#DejaVuSans-Bold-44"/>
     <use xlink:href="#DejaVuSans-Bold-4e" transform="translate(83.007812 0)"/>
    </g>
   </g>
   <g id="legend_1">
    <g id="patch_7">
     <path d="M 822.594687 165.18875 
L 871.04 165.18875 
Q 873.04 165.18875 873.04 163.18875 
L 873.04 76.12 
Q 873.04 74.12 871.04 74.12 
L 822.594687 74.12 
Q 820.594687 74.12 820.594687 76.12 
L 820.594687 163.18875 
Q 820.594687 165.18875 822.594687 165.18875 
z
" style="opacity: 0.8; stroke: #cccccc; stroke-linejoin: miter"/>
    </g>
    <g id="patch_8">
     <path d="M 824.594687 85.718438 
L 844.594687 85.718438 
L 844.594687 78.718438 
L 824.594687 78.718438 
z
" style="fill: #1f77b4; stroke: #1f77b4; stroke-linejoin: miter"/>
    </g>
    <g id="text_51">
     <!-- WK -->
     <g style="fill: #ffffff" transform="translate(852.594687 85.718438) scale(0.1 -0.1)">
      <use xlink:href="#DejaVuSans-57"/>
      <use xlink:href="#DejaVuSans-4b" transform="translate(98.876953 0)"/>
     </g>
    </g>
    <g id="patch_9">
     <path d="M 824.594687 100.396563 
L 844.594687 100.396563 
L 844.594687 93.396563 
L 824.594687 93.396563 
z
" style="fill: #17becf; stroke: #17becf; stroke-linejoin: miter"/>
    </g>
    <g id="text_52">
     <!-- UP -->
     <g style="fill: #ffffff" transform="translate(852.594687 100.396563) scale(0.1 -0.1)">
      <use xlink:href="#DejaVuSans-55"/>
      <use xlink:href="#DejaVuSans-50" transform="translate(73.193359 0)"/>
     </g>
    </g>
    <g id="patch_10">
     <path d="M 824.594687 115.074688 
L 844.594687 115.074688 
L 844.594687 108.074688 
L 824.594687 108.074688 
z
" style="fill: #9467bd; stroke: #9467bd; stroke-linejoin: miter"/>
    </g>
    <g id="text_53">
     <!-- DN -->
     <g style="fill: #ffffff" transform="translate(852.594687 115.074688) scale(0.1 -0.1)">
      <use xlink:href="#DejaVuSans-44"/>
      <use xlink:href="#DejaVuSans-4e" transform="translate(77.001953 0)"/>
     </g>
    </g>
    <g id="patch_11">
     <path d="M 824.594687 129.752813 
L 844.594687 129.752813 
L 844.594687 122.752813 
L 824.594687 122.752813 
z
" style="fill: #d62728; stroke: #d62728; stroke-linejoin: miter"/>
    </g>
    <g id="text_54">
     <!-- SI -->
     <g style="fill: #ffffff" transform="translate(852.594687 129.752813) scale(0.1 -0.1)">
      <use xlink:href="#DejaVuSans-53"/>
      <use xlink:href="#DejaVuSans-49" transform="translate(63.476562 0)"/>
     </g>
    </g>
    <g id="patch_12">
     <path d="M 824.594687 144.430938 
L 844.594687 144.430938 
L 844.594687 137.430938 
L 824.594687 137.430938 
z
" style="fill: #ff7f0e; stroke: #ff7f0e; stroke-linejoin: miter"/>
    </g>
    <g id="text_55">
     <!-- ST -->
     <g style="fill: #ffffff" transform="translate(852.594687 144.430938) scale(0.1 -0.1)">
      <use xlink:href="#DejaVuSans-53"/>
      <use xlink:href="#DejaVuSans-54" transform="translate(63.476562 0)"/>
     </g>
    </g>
    <g id="patch_13">
     <path d="M 824.594687 159.109063 
L 844.594687 159.109063 
L 844.594687 152.109063 
L 824.594687 152.109063 
z
" style="fill: #8c564b; stroke: #8c564b; stroke-linejoin: miter"/>
    </g>
    <g id="text_56">
     <!-- LY -->
     <g style="fill: #ffffff" transform="translate(852.594687 159.109063) scale(0.1 -0.1)">
      <defs>
       <path id="DejaVuSans-4c" d="M 628 4666 
L 1259 4666 
L 1259 531 
L 3531 531 
L 3531 0 
L 628 0 
L 628 4666 
z
" transform="scale(0.015625)"/>
       <path id="DejaVuSans-59" d="M -13 4666 
L 666 4666 
L 1959 2747 
L 3244 4666 
L 3922 4666 
L 2272 2222 
L 2272 0 
L 1638 0 
L 1638 2222 
L -13 4666 
z
" transform="scale(0.015625)"/>
      </defs>
      <use xlink:href="#DejaVuSans-4c"/>
      <use xlink:href="#DejaVuSans-59" transform="translate(42.462891 0)"/>
     </g>
    </g>
   </g>
  </g>
 </g>
 <defs>
  <clipPath id="p0dc07615c2">
   <rect x="108" y="69.12" width="669.6" height="443.52"/>
  </clipPath>
 </defs>
</svg>
